<?xml version="1.0" encoding="UTF-8" standalone="no"?>
<!DOCTYPE svg PUBLIC "-//W3C//DTD SVG 1.1//EN"
 "http://www.w3.org/Graphics/SVG/1.1/DTD/svg11.dtd">
<!-- Generated by graphviz version 11.0.0 (20240428.1522)
 -->
<!-- Title: G Pages: 1 -->
<svg width="720pt" height="505pt"
 viewBox="0.00 0.00 720.00 505.47" xmlns="http://www.w3.org/2000/svg" xmlns:xlink="http://www.w3.org/1999/xlink">
<g id="graph0" class="graph" transform="scale(0.611576 0.611576) rotate(0) translate(4 822.5)">
<title>G</title>
<polygon fill="white" stroke="none" points="-4,4 -4,-822.5 1173.29,-822.5 1173.29,4 -4,4"/>
<!-- Album -->
<g id="node1" class="node">
<title>Album</title>
<polygon fill="lightgray" stroke="none" points="719.54,-310.5 719.54,-333 793.04,-333 793.04,-310.5 719.54,-310.5"/>
<polygon fill="none" stroke="black" points="719.54,-310.5 719.54,-333 793.04,-333 793.04,-310.5 719.54,-310.5"/>
<text text-anchor="start" x="737.16" y="-316.7" font-family="Times,serif" font-size="14.00">Album</text>
<polygon fill="#ffebcd" stroke="none" points="719.54,-285.75 719.54,-310.5 793.04,-310.5 793.04,-285.75 719.54,-285.75"/>
<polygon fill="none" stroke="black" points="719.54,-285.75 719.54,-310.5 793.04,-310.5 793.04,-285.75 719.54,-285.75"/>
<text text-anchor="start" x="722.54" y="-294.2" font-family="Times,serif" font-size="14.00">AlbumId 🔑</text>
<polygon fill="none" stroke="black" points="719.54,-263.25 719.54,-285.75 793.04,-285.75 793.04,-263.25 719.54,-263.25"/>
<text text-anchor="start" x="743.54" y="-269.45" font-family="Times,serif" font-size="14.00">Title</text>
<polygon fill="none" stroke="black" points="719.54,-240.75 719.54,-263.25 793.04,-263.25 793.04,-240.75 719.54,-240.75"/>
<text text-anchor="start" x="735.29" y="-246.95" font-family="Times,serif" font-size="14.00">ArtistId</text>
<polygon fill="none" stroke="black" points="718.54,-239.75 718.54,-334 794.04,-334 794.04,-239.75 718.54,-239.75"/>
</g>
<!-- Artist -->
<g id="node2" class="node">
<title>Artist</title>
<polygon fill="lightgray" stroke="none" points="1025.29,-197.25 1025.29,-219.75 1091.29,-219.75 1091.29,-197.25 1025.29,-197.25"/>
<polygon fill="none" stroke="black" points="1025.29,-197.25 1025.29,-219.75 1091.29,-219.75 1091.29,-197.25 1025.29,-197.25"/>
<text text-anchor="start" x="1042.91" y="-203.45" font-family="Times,serif" font-size="14.00">Artist</text>
<polygon fill="#ffebcd" stroke="none" points="1025.29,-172.5 1025.29,-197.25 1091.29,-197.25 1091.29,-172.5 1025.29,-172.5"/>
<polygon fill="none" stroke="black" points="1025.29,-172.5 1025.29,-197.25 1091.29,-197.25 1091.29,-172.5 1025.29,-172.5"/>
<text text-anchor="start" x="1028.29" y="-180.95" font-family="Times,serif" font-size="14.00">ArtistId 🔑</text>
<polygon fill="none" stroke="black" points="1025.29,-150 1025.29,-172.5 1091.29,-172.5 1091.29,-150 1025.29,-150"/>
<text text-anchor="start" x="1041.79" y="-156.2" font-family="Times,serif" font-size="14.00">Name</text>
<polygon fill="none" stroke="black" points="1024.29,-149 1024.29,-220.75 1092.29,-220.75 1092.29,-149 1024.29,-149"/>
</g>
<!-- Album&#45;&gt;Artist -->
<g id="edge1" class="edge">
<title>Album:ArtistId&#45;&gt;Artist:ArtistId</title>
<path fill="none" stroke="black" d="M794.04,-252C896.67,-252 916.3,-189.76 1012.78,-185.15"/>
<polygon fill="black" stroke="black" points="1012.86,-188.64 1022.77,-184.91 1012.69,-181.65 1012.86,-188.64"/>
</g>
<!-- Customer -->
<g id="node3" class="node">
<title>Customer</title>
<polygon fill="lightgray" stroke="none" points="712.04,-791 712.04,-813.5 800.54,-813.5 800.54,-791 712.04,-791"/>
<polygon fill="none" stroke="black" points="712.04,-791 712.04,-813.5 800.54,-813.5 800.54,-791 712.04,-791"/>
<text text-anchor="start" x="729.66" y="-797.2" font-family="Times,serif" font-size="14.00">Customer</text>
<polygon fill="#ffebcd" stroke="none" points="712.04,-766.25 712.04,-791 800.54,-791 800.54,-766.25 712.04,-766.25"/>
<polygon fill="none" stroke="black" points="712.04,-766.25 712.04,-791 800.54,-791 800.54,-766.25 712.04,-766.25"/>
<text text-anchor="start" x="715.04" y="-774.7" font-family="Times,serif" font-size="14.00">CustomerId 🔑</text>
<polygon fill="none" stroke="black" points="712.04,-743.75 712.04,-766.25 800.54,-766.25 800.54,-743.75 712.04,-743.75"/>
<text text-anchor="start" x="727.41" y="-749.95" font-family="Times,serif" font-size="14.00">FirstName</text>
<polygon fill="none" stroke="black" points="712.04,-721.25 712.04,-743.75 800.54,-743.75 800.54,-721.25 712.04,-721.25"/>
<text text-anchor="start" x="728.16" y="-727.45" font-family="Times,serif" font-size="14.00">LastName</text>
<polygon fill="none" stroke="black" points="712.04,-698.75 712.04,-721.25 800.54,-721.25 800.54,-698.75 712.04,-698.75"/>
<text text-anchor="start" x="729.66" y="-704.95" font-family="Times,serif" font-size="14.00">Company</text>
<polygon fill="none" stroke="black" points="712.04,-676.25 712.04,-698.75 800.54,-698.75 800.54,-676.25 712.04,-676.25"/>
<text text-anchor="start" x="734.16" y="-682.45" font-family="Times,serif" font-size="14.00">Address</text>
<polygon fill="none" stroke="black" points="712.04,-653.75 712.04,-676.25 800.54,-676.25 800.54,-653.75 712.04,-653.75"/>
<text text-anchor="start" x="744.66" y="-659.95" font-family="Times,serif" font-size="14.00">City</text>
<polygon fill="none" stroke="black" points="712.04,-631.25 712.04,-653.75 800.54,-653.75 800.54,-631.25 712.04,-631.25"/>
<text text-anchor="start" x="742.79" y="-637.45" font-family="Times,serif" font-size="14.00">State</text>
<polygon fill="none" stroke="black" points="712.04,-608.75 712.04,-631.25 800.54,-631.25 800.54,-608.75 712.04,-608.75"/>
<text text-anchor="start" x="734.16" y="-614.95" font-family="Times,serif" font-size="14.00">Country</text>
<polygon fill="none" stroke="black" points="712.04,-586.25 712.04,-608.75 800.54,-608.75 800.54,-586.25 712.04,-586.25"/>
<text text-anchor="start" x="725.54" y="-592.45" font-family="Times,serif" font-size="14.00">PostalCode</text>
<polygon fill="none" stroke="black" points="712.04,-563.75 712.04,-586.25 800.54,-586.25 800.54,-563.75 712.04,-563.75"/>
<text text-anchor="start" x="739.41" y="-569.95" font-family="Times,serif" font-size="14.00">Phone</text>
<polygon fill="none" stroke="black" points="712.04,-541.25 712.04,-563.75 800.54,-563.75 800.54,-541.25 712.04,-541.25"/>
<text text-anchor="start" x="746.16" y="-547.45" font-family="Times,serif" font-size="14.00">Fax</text>
<polygon fill="none" stroke="black" points="712.04,-518.75 712.04,-541.25 800.54,-541.25 800.54,-518.75 712.04,-518.75"/>
<text text-anchor="start" x="739.79" y="-524.95" font-family="Times,serif" font-size="14.00">Email</text>
<polygon fill="none" stroke="black" points="712.04,-496.25 712.04,-518.75 800.54,-518.75 800.54,-496.25 712.04,-496.25"/>
<text text-anchor="start" x="718.41" y="-502.45" font-family="Times,serif" font-size="14.00">SupportRepId</text>
<polygon fill="none" stroke="black" points="711.04,-495.25 711.04,-814.5 801.54,-814.5 801.54,-495.25 711.04,-495.25"/>
</g>
<!-- Employee -->
<g id="node4" class="node">
<title>Employee</title>
<polygon fill="lightgray" stroke="none" points="1012.91,-587.5 1012.91,-610 1103.66,-610 1103.66,-587.5 1012.91,-587.5"/>
<polygon fill="none" stroke="black" points="1012.91,-587.5 1012.91,-610 1103.66,-610 1103.66,-587.5 1012.91,-587.5"/>
<text text-anchor="start" x="1030.54" y="-593.7" font-family="Times,serif" font-size="14.00">Employee</text>
<polygon fill="#ffebcd" stroke="none" points="1012.91,-562.75 1012.91,-587.5 1103.66,-587.5 1103.66,-562.75 1012.91,-562.75"/>
<polygon fill="none" stroke="black" points="1012.91,-562.75 1012.91,-587.5 1103.66,-587.5 1103.66,-562.75 1012.91,-562.75"/>
<text text-anchor="start" x="1015.91" y="-571.2" font-family="Times,serif" font-size="14.00">EmployeeId 🔑</text>
<polygon fill="none" stroke="black" points="1012.91,-540.25 1012.91,-562.75 1103.66,-562.75 1103.66,-540.25 1012.91,-540.25"/>
<text text-anchor="start" x="1030.16" y="-546.45" font-family="Times,serif" font-size="14.00">LastName</text>
<polygon fill="none" stroke="black" points="1012.91,-517.75 1012.91,-540.25 1103.66,-540.25 1103.66,-517.75 1012.91,-517.75"/>
<text text-anchor="start" x="1029.41" y="-523.95" font-family="Times,serif" font-size="14.00">FirstName</text>
<polygon fill="none" stroke="black" points="1012.91,-495.25 1012.91,-517.75 1103.66,-517.75 1103.66,-495.25 1012.91,-495.25"/>
<text text-anchor="start" x="1045.54" y="-501.45" font-family="Times,serif" font-size="14.00">Title</text>
<polygon fill="none" stroke="black" points="1012.91,-472.75 1012.91,-495.25 1103.66,-495.25 1103.66,-472.75 1012.91,-472.75"/>
<text text-anchor="start" x="1029.79" y="-478.95" font-family="Times,serif" font-size="14.00">ReportsTo</text>
<polygon fill="none" stroke="black" points="1012.91,-450.25 1012.91,-472.75 1103.66,-472.75 1103.66,-450.25 1012.91,-450.25"/>
<text text-anchor="start" x="1031.66" y="-456.45" font-family="Times,serif" font-size="14.00">BirthDate</text>
<polygon fill="none" stroke="black" points="1012.91,-427.75 1012.91,-450.25 1103.66,-450.25 1103.66,-427.75 1012.91,-427.75"/>
<text text-anchor="start" x="1033.54" y="-433.95" font-family="Times,serif" font-size="14.00">HireDate</text>
<polygon fill="none" stroke="black" points="1012.91,-405.25 1012.91,-427.75 1103.66,-427.75 1103.66,-405.25 1012.91,-405.25"/>
<text text-anchor="start" x="1036.16" y="-411.45" font-family="Times,serif" font-size="14.00">Address</text>
<polygon fill="none" stroke="black" points="1012.91,-382.75 1012.91,-405.25 1103.66,-405.25 1103.66,-382.75 1012.91,-382.75"/>
<text text-anchor="start" x="1046.66" y="-388.95" font-family="Times,serif" font-size="14.00">City</text>
<polygon fill="none" stroke="black" points="1012.91,-360.25 1012.91,-382.75 1103.66,-382.75 1103.66,-360.25 1012.91,-360.25"/>
<text text-anchor="start" x="1044.79" y="-366.45" font-family="Times,serif" font-size="14.00">State</text>
<polygon fill="none" stroke="black" points="1012.91,-337.75 1012.91,-360.25 1103.66,-360.25 1103.66,-337.75 1012.91,-337.75"/>
<text text-anchor="start" x="1036.16" y="-343.95" font-family="Times,serif" font-size="14.00">Country</text>
<polygon fill="none" stroke="black" points="1012.91,-315.25 1012.91,-337.75 1103.66,-337.75 1103.66,-315.25 1012.91,-315.25"/>
<text text-anchor="start" x="1027.54" y="-321.45" font-family="Times,serif" font-size="14.00">PostalCode</text>
<polygon fill="none" stroke="black" points="1012.91,-292.75 1012.91,-315.25 1103.66,-315.25 1103.66,-292.75 1012.91,-292.75"/>
<text text-anchor="start" x="1041.41" y="-298.95" font-family="Times,serif" font-size="14.00">Phone</text>
<polygon fill="none" stroke="black" points="1012.91,-270.25 1012.91,-292.75 1103.66,-292.75 1103.66,-270.25 1012.91,-270.25"/>
<text text-anchor="start" x="1048.16" y="-276.45" font-family="Times,serif" font-size="14.00">Fax</text>
<polygon fill="none" stroke="black" points="1012.91,-247.75 1012.91,-270.25 1103.66,-270.25 1103.66,-247.75 1012.91,-247.75"/>
<text text-anchor="start" x="1041.79" y="-253.95" font-family="Times,serif" font-size="14.00">Email</text>
<polygon fill="none" stroke="black" points="1011.91,-246.75 1011.91,-611 1104.66,-611 1104.66,-246.75 1011.91,-246.75"/>
</g>
<!-- Customer&#45;&gt;Employee -->
<g id="edge2" class="edge">
<title>Customer:SupportRepId&#45;&gt;Employee:EmployeeId</title>
<path fill="none" stroke="black" d="M801.54,-507.5C895.82,-507.5 912.45,-569.82 1000.51,-574.81"/>
<polygon fill="black" stroke="black" points="1000.3,-578.3 1010.4,-575.08 1000.5,-571.31 1000.3,-578.3"/>
</g>
<!-- Employee&#45;&gt;Employee -->
<g id="edge3" class="edge">
<title>Employee:ReportsTo&#45;&gt;Employee:EmployeeId</title>
<path fill="none" stroke="black" d="M1013.15,-480.15C942.65,-476.98 852.91,-485.39 852.91,-529.56 852.91,-571.41 933.43,-581.16 1001.85,-579.37"/>
<polygon fill="black" stroke="black" points="1001.77,-582.88 1011.63,-579.03 1001.52,-575.88 1001.77,-582.88"/>
</g>
<!-- Genre -->
<g id="node5" class="node">
<title>Genre</title>
<polygon fill="lightgray" stroke="none" points="722.16,-92.25 722.16,-114.75 790.41,-114.75 790.41,-92.25 722.16,-92.25"/>
<polygon fill="none" stroke="black" points="722.16,-92.25 722.16,-114.75 790.41,-114.75 790.41,-92.25 722.16,-92.25"/>
<text text-anchor="start" x="739.79" y="-98.45" font-family="Times,serif" font-size="14.00">Genre</text>
<polygon fill="#ffebcd" stroke="none" points="722.16,-67.5 722.16,-92.25 790.41,-92.25 790.41,-67.5 722.16,-67.5"/>
<polygon fill="none" stroke="black" points="722.16,-67.5 722.16,-92.25 790.41,-92.25 790.41,-67.5 722.16,-67.5"/>
<text text-anchor="start" x="725.16" y="-75.95" font-family="Times,serif" font-size="14.00">GenreId 🔑</text>
<polygon fill="none" stroke="black" points="722.16,-45 722.16,-67.5 790.41,-67.5 790.41,-45 722.16,-45"/>
<text text-anchor="start" x="739.79" y="-51.2" font-family="Times,serif" font-size="14.00">Name</text>
<polygon fill="none" stroke="black" points="721.16,-44 721.16,-115.75 791.41,-115.75 791.41,-44 721.16,-44"/>
</g>
<!-- Invoice -->
<g id="node6" class="node">
<title>Invoice</title>
<polygon fill="lightgray" stroke="none" points="386.79,-596 386.79,-618.5 491.79,-618.5 491.79,-596 386.79,-596"/>
<polygon fill="none" stroke="black" points="386.79,-596 386.79,-618.5 491.79,-618.5 491.79,-596 386.79,-596"/>
<text text-anchor="start" x="419.04" y="-602.2" font-family="Times,serif" font-size="14.00">Invoice</text>
<polygon fill="#ffebcd" stroke="none" points="386.79,-571.25 386.79,-596 491.79,-596 491.79,-571.25 386.79,-571.25"/>
<polygon fill="none" stroke="black" points="386.79,-571.25 386.79,-596 491.79,-596 491.79,-571.25 386.79,-571.25"/>
<text text-anchor="start" x="404.41" y="-579.7" font-family="Times,serif" font-size="14.00">InvoiceId 🔑</text>
<polygon fill="none" stroke="black" points="386.79,-548.75 386.79,-571.25 491.79,-571.25 491.79,-548.75 386.79,-548.75"/>
<text text-anchor="start" x="407.04" y="-554.95" font-family="Times,serif" font-size="14.00">CustomerId</text>
<polygon fill="none" stroke="black" points="386.79,-526.25 386.79,-548.75 491.79,-548.75 491.79,-526.25 386.79,-526.25"/>
<text text-anchor="start" x="406.29" y="-532.45" font-family="Times,serif" font-size="14.00">InvoiceDate</text>
<polygon fill="none" stroke="black" points="386.79,-503.75 386.79,-526.25 491.79,-526.25 491.79,-503.75 386.79,-503.75"/>
<text text-anchor="start" x="398.41" y="-509.95" font-family="Times,serif" font-size="14.00">BillingAddress</text>
<polygon fill="none" stroke="black" points="386.79,-481.25 386.79,-503.75 491.79,-503.75 491.79,-481.25 386.79,-481.25"/>
<text text-anchor="start" x="408.91" y="-487.45" font-family="Times,serif" font-size="14.00">BillingCity</text>
<polygon fill="none" stroke="black" points="386.79,-458.75 386.79,-481.25 491.79,-481.25 491.79,-458.75 386.79,-458.75"/>
<text text-anchor="start" x="407.04" y="-464.95" font-family="Times,serif" font-size="14.00">BillingState</text>
<polygon fill="none" stroke="black" points="386.79,-436.25 386.79,-458.75 491.79,-458.75 491.79,-436.25 386.79,-436.25"/>
<text text-anchor="start" x="398.41" y="-442.45" font-family="Times,serif" font-size="14.00">BillingCountry</text>
<polygon fill="none" stroke="black" points="386.79,-413.75 386.79,-436.25 491.79,-436.25 491.79,-413.75 386.79,-413.75"/>
<text text-anchor="start" x="389.79" y="-419.95" font-family="Times,serif" font-size="14.00">BillingPostalCode</text>
<polygon fill="none" stroke="black" points="386.79,-391.25 386.79,-413.75 491.79,-413.75 491.79,-391.25 386.79,-391.25"/>
<text text-anchor="start" x="425.04" y="-397.45" font-family="Times,serif" font-size="14.00">Total</text>
<polygon fill="none" stroke="black" points="385.79,-390.25 385.79,-619.5 492.79,-619.5 492.79,-390.25 385.79,-390.25"/>
</g>
<!-- Invoice&#45;&gt;Customer -->
<g id="edge4" class="edge">
<title>Invoice:CustomerId&#45;&gt;Customer:CustomerId</title>
<path fill="none" stroke="black" d="M492.79,-560C626.19,-560 576.78,-766.42 699.83,-778.11"/>
<polygon fill="black" stroke="black" points="699.37,-781.59 709.52,-778.56 699.7,-774.6 699.37,-781.59"/>
</g>
<!-- InvoiceLine -->
<g id="node7" class="node">
<title>InvoiceLine</title>
<polygon fill="lightgray" stroke="none" points="70.04,-460 70.04,-482.5 170.54,-482.5 170.54,-460 70.04,-460"/>
<polygon fill="none" stroke="black" points="70.04,-460 70.04,-482.5 170.54,-482.5 170.54,-460 70.04,-460"/>
<text text-anchor="start" x="87.66" y="-466.2" font-family="Times,serif" font-size="14.00">InvoiceLine</text>
<polygon fill="#ffebcd" stroke="none" points="70.04,-435.25 70.04,-460 170.54,-460 170.54,-435.25 70.04,-435.25"/>
<polygon fill="none" stroke="black" points="70.04,-435.25 70.04,-460 170.54,-460 170.54,-435.25 70.04,-435.25"/>
<text text-anchor="start" x="73.04" y="-443.7" font-family="Times,serif" font-size="14.00">InvoiceLineId 🔑</text>
<polygon fill="none" stroke="black" points="70.04,-412.75 70.04,-435.25 170.54,-435.25 170.54,-412.75 70.04,-412.75"/>
<text text-anchor="start" x="94.41" y="-418.95" font-family="Times,serif" font-size="14.00">InvoiceId</text>
<polygon fill="none" stroke="black" points="70.04,-390.25 70.04,-412.75 170.54,-412.75 170.54,-390.25 70.04,-390.25"/>
<text text-anchor="start" x="98.91" y="-396.45" font-family="Times,serif" font-size="14.00">TrackId</text>
<polygon fill="none" stroke="black" points="70.04,-367.75 70.04,-390.25 170.54,-390.25 170.54,-367.75 70.04,-367.75"/>
<text text-anchor="start" x="94.41" y="-373.95" font-family="Times,serif" font-size="14.00">UnitPrice</text>
<polygon fill="none" stroke="black" points="70.04,-345.25 70.04,-367.75 170.54,-367.75 170.54,-345.25 70.04,-345.25"/>
<text text-anchor="start" x="96.66" y="-351.45" font-family="Times,serif" font-size="14.00">Quantity</text>
<polygon fill="none" stroke="black" points="69.04,-344.25 69.04,-483.5 171.54,-483.5 171.54,-344.25 69.04,-344.25"/>
</g>
<!-- InvoiceLine&#45;&gt;Invoice -->
<g id="edge6" class="edge">
<title>InvoiceLine:InvoiceId&#45;&gt;Invoice:InvoiceId</title>
<path fill="none" stroke="black" d="M171.54,-424C286.34,-424 268.43,-573.2 374.42,-583.11"/>
<polygon fill="black" stroke="black" points="374.13,-586.6 384.27,-583.56 374.44,-579.61 374.13,-586.6"/>
</g>
<!-- Track -->
<g id="node11" class="node">
<title>Track</title>
<polygon fill="lightgray" stroke="none" points="399.16,-308 399.16,-330.5 479.41,-330.5 479.41,-308 399.16,-308"/>
<polygon fill="none" stroke="black" points="399.16,-308 399.16,-330.5 479.41,-330.5 479.41,-308 399.16,-308"/>
<text text-anchor="start" x="423.54" y="-314.2" font-family="Times,serif" font-size="14.00">Track</text>
<polygon fill="#ffebcd" stroke="none" points="399.16,-283.25 399.16,-308 479.41,-308 479.41,-283.25 399.16,-283.25"/>
<polygon fill="none" stroke="black" points="399.16,-283.25 399.16,-308 479.41,-308 479.41,-283.25 399.16,-283.25"/>
<text text-anchor="start" x="408.91" y="-291.7" font-family="Times,serif" font-size="14.00">TrackId 🔑</text>
<polygon fill="none" stroke="black" points="399.16,-260.75 399.16,-283.25 479.41,-283.25 479.41,-260.75 399.16,-260.75"/>
<text text-anchor="start" x="422.79" y="-266.95" font-family="Times,serif" font-size="14.00">Name</text>
<polygon fill="none" stroke="black" points="399.16,-238.25 399.16,-260.75 479.41,-260.75 479.41,-238.25 399.16,-238.25"/>
<text text-anchor="start" x="414.54" y="-244.45" font-family="Times,serif" font-size="14.00">AlbumId</text>
<polygon fill="none" stroke="black" points="399.16,-215.75 399.16,-238.25 479.41,-238.25 479.41,-215.75 399.16,-215.75"/>
<text text-anchor="start" x="402.16" y="-221.95" font-family="Times,serif" font-size="14.00">MediaTypeId</text>
<polygon fill="none" stroke="black" points="399.16,-193.25 399.16,-215.75 479.41,-215.75 479.41,-193.25 399.16,-193.25"/>
<text text-anchor="start" x="417.16" y="-199.45" font-family="Times,serif" font-size="14.00">GenreId</text>
<polygon fill="none" stroke="black" points="399.16,-170.75 399.16,-193.25 479.41,-193.25 479.41,-170.75 399.16,-170.75"/>
<text text-anchor="start" x="411.16" y="-176.95" font-family="Times,serif" font-size="14.00">Composer</text>
<polygon fill="none" stroke="black" points="399.16,-148.25 399.16,-170.75 479.41,-170.75 479.41,-148.25 399.16,-148.25"/>
<text text-anchor="start" x="404.04" y="-154.45" font-family="Times,serif" font-size="14.00">Milliseconds</text>
<polygon fill="none" stroke="black" points="399.16,-125.75 399.16,-148.25 479.41,-148.25 479.41,-125.75 399.16,-125.75"/>
<text text-anchor="start" x="423.91" y="-131.95" font-family="Times,serif" font-size="14.00">Bytes</text>
<polygon fill="none" stroke="black" points="399.16,-103.25 399.16,-125.75 479.41,-125.75 479.41,-103.25 399.16,-103.25"/>
<text text-anchor="start" x="413.41" y="-109.45" font-family="Times,serif" font-size="14.00">UnitPrice</text>
<polygon fill="none" stroke="black" points="398.16,-102.25 398.16,-331.5 480.41,-331.5 480.41,-102.25 398.16,-102.25"/>
</g>
<!-- InvoiceLine&#45;&gt;Track -->
<g id="edge5" class="edge">
<title>InvoiceLine:TrackId&#45;&gt;Track:TrackId</title>
<path fill="none" stroke="black" d="M171.54,-401.5C278.8,-401.5 286.56,-302.94 386.82,-296.01"/>
<polygon fill="black" stroke="black" points="386.77,-299.51 396.65,-295.68 386.54,-292.52 386.77,-299.51"/>
</g>
<!-- MediaType -->
<g id="node8" class="node">
<title>MediaType</title>
<polygon fill="lightgray" stroke="none" points="707.16,-190.25 707.16,-212.75 805.41,-212.75 805.41,-190.25 707.16,-190.25"/>
<polygon fill="none" stroke="black" points="707.16,-190.25 707.16,-212.75 805.41,-212.75 805.41,-190.25 707.16,-190.25"/>
<text text-anchor="start" x="724.79" y="-196.45" font-family="Times,serif" font-size="14.00">MediaType</text>
<polygon fill="#ffebcd" stroke="none" points="707.16,-165.5 707.16,-190.25 805.41,-190.25 805.41,-165.5 707.16,-165.5"/>
<polygon fill="none" stroke="black" points="707.16,-165.5 707.16,-190.25 805.41,-190.25 805.41,-165.5 707.16,-165.5"/>
<text text-anchor="start" x="710.16" y="-173.95" font-family="Times,serif" font-size="14.00">MediaTypeId 🔑</text>
<polygon fill="none" stroke="black" points="707.16,-143 707.16,-165.5 805.41,-165.5 805.41,-143 707.16,-143"/>
<text text-anchor="start" x="739.79" y="-149.2" font-family="Times,serif" font-size="14.00">Name</text>
<polygon fill="none" stroke="black" points="706.16,-142 706.16,-213.75 806.41,-213.75 806.41,-142 706.16,-142"/>
</g>
<!-- Playlist -->
<g id="node9" class="node">
<title>Playlist</title>
<polygon fill="lightgray" stroke="none" points="401.41,-52.25 401.41,-74.75 477.16,-74.75 477.16,-52.25 401.41,-52.25"/>
<polygon fill="none" stroke="black" points="401.41,-52.25 401.41,-74.75 477.16,-74.75 477.16,-52.25 401.41,-52.25"/>
<text text-anchor="start" x="419.04" y="-58.45" font-family="Times,serif" font-size="14.00">Playlist</text>
<polygon fill="#ffebcd" stroke="none" points="401.41,-27.5 401.41,-52.25 477.16,-52.25 477.16,-27.5 401.41,-27.5"/>
<polygon fill="none" stroke="black" points="401.41,-27.5 401.41,-52.25 477.16,-52.25 477.16,-27.5 401.41,-27.5"/>
<text text-anchor="start" x="404.41" y="-35.95" font-family="Times,serif" font-size="14.00">PlaylistId 🔑</text>
<polygon fill="none" stroke="black" points="401.41,-5 401.41,-27.5 477.16,-27.5 477.16,-5 401.41,-5"/>
<text text-anchor="start" x="422.79" y="-11.2" font-family="Times,serif" font-size="14.00">Name</text>
<polygon fill="none" stroke="black" points="400.41,-4 400.41,-75.75 478.16,-75.75 478.16,-4 400.41,-4"/>
</g>
<!-- PlaylistTrack -->
<g id="node10" class="node">
<title>PlaylistTrack</title>
<polygon fill="lightgray" stroke="none" points="81.29,-226.38 81.29,-248.88 159.29,-248.88 159.29,-226.38 81.29,-226.38"/>
<polygon fill="none" stroke="black" points="81.29,-226.38 81.29,-248.88 159.29,-248.88 159.29,-226.38 81.29,-226.38"/>
<text text-anchor="start" x="84.29" y="-232.57" font-family="Times,serif" font-size="14.00">PlaylistTrack</text>
<polygon fill="#ffebcd" stroke="none" points="81.29,-201.62 81.29,-226.38 159.29,-226.38 159.29,-201.62 81.29,-201.62"/>
<polygon fill="none" stroke="black" points="81.29,-201.62 81.29,-226.38 159.29,-226.38 159.29,-201.62 81.29,-201.62"/>
<text text-anchor="start" x="85.41" y="-210.07" font-family="Times,serif" font-size="14.00">PlaylistId 🔑</text>
<polygon fill="#ffebcd" stroke="none" points="81.29,-176.88 81.29,-201.62 159.29,-201.62 159.29,-176.88 81.29,-176.88"/>
<polygon fill="none" stroke="black" points="81.29,-176.88 81.29,-201.62 159.29,-201.62 159.29,-176.88 81.29,-176.88"/>
<text text-anchor="start" x="89.91" y="-185.32" font-family="Times,serif" font-size="14.00">TrackId 🔑</text>
<polygon fill="none" stroke="black" points="80.29,-175.88 80.29,-249.88 160.29,-249.88 160.29,-175.88 80.29,-175.88"/>
</g>
<!-- PlaylistTrack&#45;&gt;Playlist -->
<g id="edge8" class="edge">
<title>PlaylistTrack:PlaylistId&#45;&gt;Playlist:PlaylistId</title>
<path fill="none" stroke="black" d="M160.29,-214C288.25,-214 269.83,-49.93 389.22,-40.31"/>
<polygon fill="black" stroke="black" points="389.04,-43.82 398.9,-39.93 388.77,-36.83 389.04,-43.82"/>
</g>
<!-- PlaylistTrack&#45;&gt;Track -->
<g id="edge7" class="edge">
<title>PlaylistTrack:TrackId&#45;&gt;Track:TrackId</title>
<path fill="none" stroke="black" d="M160.29,-189.25C272.14,-189.25 281.79,-288.48 386.66,-295.26"/>
<polygon fill="black" stroke="black" points="386.54,-298.76 396.65,-295.58 386.76,-291.76 386.54,-298.76"/>
</g>
<!-- Track&#45;&gt;Album -->
<g id="edge11" class="edge">
<title>Track:AlbumId&#45;&gt;Album:AlbumId</title>
<path fill="none" stroke="black" d="M480.41,-249.5C584.53,-249.5 608.81,-294.67 707.16,-297.94"/>
<polygon fill="black" stroke="black" points="706.97,-301.44 717.02,-298.1 707.08,-294.44 706.97,-301.44"/>
</g>
<!-- Track&#45;&gt;Genre -->
<g id="edge10" class="edge">
<title>Track:GenreId&#45;&gt;Genre:GenreId</title>
<path fill="none" stroke="black" d="M480.41,-204.5C597.01,-204.5 600.56,-87.78 709.88,-80.25"/>
<polygon fill="black" stroke="black" points="709.77,-83.76 719.65,-79.93 709.54,-76.76 709.77,-83.76"/>
</g>
<!-- Track&#45;&gt;MediaType -->
<g id="edge9" class="edge">
<title>Track:MediaTypeId&#45;&gt;MediaType:MediaTypeId</title>
<path fill="none" stroke="black" d="M480.41,-227C579.18,-227 601.81,-181.55 694.78,-178.08"/>
<polygon fill="black" stroke="black" points="694.71,-181.59 704.65,-177.9 694.59,-174.59 694.71,-181.59"/>
</g>
</g>
</svg>
