<?xml version="1.0" encoding="UTF-8" standalone="no"?>
<!DOCTYPE svg PUBLIC "-//W3C//DTD SVG 1.1//EN"
 "http://www.w3.org/Graphics/SVG/1.1/DTD/svg11.dtd">
<!-- Generated by graphviz version 12.2.0 (20241103.1931)
 -->
<!-- Title: G Pages: 1 -->
<svg width="68pt" height="108pt"
 viewBox="0.00 0.00 68.00 108.00" xmlns="http://www.w3.org/2000/svg" xmlns:xlink="http://www.w3.org/1999/xlink">
<g id="graph0" class="graph" transform="scale(1 1) rotate(0) translate(4 104)">
<title>G</title>
<polygon fill="white" stroke="none" points="-4,4 -4,-104 64,-104 64,4 -4,4"/>
<!-- people -->
<g id="node1" class="node">
<title>people</title>
<polygon fill="lightgray" stroke="none" points="9,-72.5 9,-95 51,-95 51,-72.5 9,-72.5"/>
<polygon fill="none" stroke="black" points="9,-72.5 9,-95 51,-95 51,-72.5 9,-72.5"/>
<text text-anchor="start" x="12" y="-78.7" font-family="Times,serif" font-size="14.00">people</text>
<polygon fill="none" stroke="black" points="9,-50 9,-72.5 51,-72.5 51,-50 9,-50"/>
<text text-anchor="start" x="24.75" y="-56.2" font-family="Times,serif" font-size="14.00">id</text>
<polygon fill="none" stroke="black" points="9,-27.5 9,-50 51,-50 51,-27.5 9,-27.5"/>
<text text-anchor="start" x="15" y="-33.7" font-family="Times,serif" font-size="14.00">name</text>
<polygon fill="none" stroke="black" points="9,-5 9,-27.5 51,-27.5 51,-5 9,-5"/>
<text text-anchor="start" x="20.62" y="-11.2" font-family="Times,serif" font-size="14.00">age</text>
<polygon fill="none" stroke="black" points="8,-4 8,-96 52,-96 52,-4 8,-4"/>
</g>
</g>
</svg>
