<?xml version="1.0" encoding="UTF-8" standalone="no"?>
<!DOCTYPE svg PUBLIC "-//W3C//DTD SVG 1.1//EN"
 "http://www.w3.org/Graphics/SVG/1.1/DTD/svg11.dtd">
<!-- Generated by graphviz version 11.0.0 (20240428.1522)
 -->
<!-- Title: G Pages: 1 -->
<svg width="576pt" height="234pt"
 viewBox="0.00 0.00 576.00 234.07" xmlns="http://www.w3.org/2000/svg" xmlns:xlink="http://www.w3.org/1999/xlink">
<g id="graph0" class="graph" transform="scale(0.76494 0.76494) rotate(0) translate(4 302)">
<title>G</title>
<polygon fill="white" stroke="none" points="-4,4 -4,-302 749,-302 749,4 -4,4"/>
<!-- Artist -->
<g id="node1" class="node">
<title>Artist</title>
<polygon fill="lightgray" stroke="none" points="628,-225.25 628,-247.75 694,-247.75 694,-225.25 628,-225.25"/>
<polygon fill="none" stroke="black" points="628,-225.25 628,-247.75 694,-247.75 694,-225.25 628,-225.25"/>
<text text-anchor="start" x="645.62" y="-231.45" font-family="Times,serif" font-size="14.00">Artist</text>
<polygon fill="#ffebcd" stroke="none" points="628,-200.5 628,-225.25 694,-225.25 694,-200.5 628,-200.5"/>
<polygon fill="none" stroke="black" points="628,-200.5 628,-225.25 694,-225.25 694,-200.5 628,-200.5"/>
<text text-anchor="start" x="631" y="-208.95" font-family="Times,serif" font-size="14.00">ArtistId 🔑</text>
<polygon fill="none" stroke="black" points="628,-178 628,-200.5 694,-200.5 694,-178 628,-178"/>
<text text-anchor="start" x="644.5" y="-184.2" font-family="Times,serif" font-size="14.00">Name</text>
<polygon fill="none" stroke="black" points="627,-177 627,-248.75 695,-248.75 695,-177 627,-177"/>
</g>
<!-- Album -->
<g id="node2" class="node">
<title>Album</title>
<polygon fill="lightgray" stroke="none" points="350.25,-270.5 350.25,-293 423.75,-293 423.75,-270.5 350.25,-270.5"/>
<polygon fill="none" stroke="black" points="350.25,-270.5 350.25,-293 423.75,-293 423.75,-270.5 350.25,-270.5"/>
<text text-anchor="start" x="367.88" y="-276.7" font-family="Times,serif" font-size="14.00">Album</text>
<polygon fill="#ffebcd" stroke="none" points="350.25,-245.75 350.25,-270.5 423.75,-270.5 423.75,-245.75 350.25,-245.75"/>
<polygon fill="none" stroke="black" points="350.25,-245.75 350.25,-270.5 423.75,-270.5 423.75,-245.75 350.25,-245.75"/>
<text text-anchor="start" x="353.25" y="-254.2" font-family="Times,serif" font-size="14.00">AlbumId 🔑</text>
<polygon fill="none" stroke="black" points="350.25,-223.25 350.25,-245.75 423.75,-245.75 423.75,-223.25 350.25,-223.25"/>
<text text-anchor="start" x="374.25" y="-229.45" font-family="Times,serif" font-size="14.00">Title</text>
<polygon fill="none" stroke="black" points="350.25,-200.75 350.25,-223.25 423.75,-223.25 423.75,-200.75 350.25,-200.75"/>
<text text-anchor="start" x="366" y="-206.95" font-family="Times,serif" font-size="14.00">ArtistId</text>
<polygon fill="none" stroke="black" points="349.25,-199.75 349.25,-294 424.75,-294 424.75,-199.75 349.25,-199.75"/>
</g>
<!-- Album&#45;&gt;Artist -->
<g id="edge1" class="edge">
<title>Album:ArtistId&#45;&gt;Artist:ArtistId</title>
<path fill="none" stroke="black" d="M424.75,-212C510.78,-212 535.05,-212.8 615.78,-212.87"/>
<polygon fill="black" stroke="black" points="615.48,-216.37 625.49,-212.87 615.49,-209.37 615.48,-216.37"/>
</g>
<!-- Track -->
<g id="node3" class="node">
<title>Track</title>
<polygon fill="lightgray" stroke="none" points="58.88,-219 58.88,-241.5 139.12,-241.5 139.12,-219 58.88,-219"/>
<polygon fill="none" stroke="black" points="58.88,-219 58.88,-241.5 139.12,-241.5 139.12,-219 58.88,-219"/>
<text text-anchor="start" x="83.25" y="-225.2" font-family="Times,serif" font-size="14.00">Track</text>
<polygon fill="#ffebcd" stroke="none" points="58.88,-194.25 58.88,-219 139.12,-219 139.12,-194.25 58.88,-194.25"/>
<polygon fill="none" stroke="black" points="58.88,-194.25 58.88,-219 139.12,-219 139.12,-194.25 58.88,-194.25"/>
<text text-anchor="start" x="68.62" y="-202.7" font-family="Times,serif" font-size="14.00">TrackId 🔑</text>
<polygon fill="none" stroke="black" points="58.88,-171.75 58.88,-194.25 139.12,-194.25 139.12,-171.75 58.88,-171.75"/>
<text text-anchor="start" x="82.5" y="-177.95" font-family="Times,serif" font-size="14.00">Name</text>
<polygon fill="none" stroke="black" points="58.88,-149.25 58.88,-171.75 139.12,-171.75 139.12,-149.25 58.88,-149.25"/>
<text text-anchor="start" x="74.25" y="-155.45" font-family="Times,serif" font-size="14.00">AlbumId</text>
<polygon fill="none" stroke="black" points="58.88,-126.75 58.88,-149.25 139.12,-149.25 139.12,-126.75 58.88,-126.75"/>
<text text-anchor="start" x="61.88" y="-132.95" font-family="Times,serif" font-size="14.00">MediaTypeId</text>
<polygon fill="none" stroke="black" points="58.88,-104.25 58.88,-126.75 139.12,-126.75 139.12,-104.25 58.88,-104.25"/>
<text text-anchor="start" x="76.88" y="-110.45" font-family="Times,serif" font-size="14.00">GenreId</text>
<polygon fill="none" stroke="black" points="58.88,-81.75 58.88,-104.25 139.12,-104.25 139.12,-81.75 58.88,-81.75"/>
<text text-anchor="start" x="70.88" y="-87.95" font-family="Times,serif" font-size="14.00">Composer</text>
<polygon fill="none" stroke="black" points="58.88,-59.25 58.88,-81.75 139.12,-81.75 139.12,-59.25 58.88,-59.25"/>
<text text-anchor="start" x="63.75" y="-65.45" font-family="Times,serif" font-size="14.00">Milliseconds</text>
<polygon fill="none" stroke="black" points="58.88,-36.75 58.88,-59.25 139.12,-59.25 139.12,-36.75 58.88,-36.75"/>
<text text-anchor="start" x="83.62" y="-42.95" font-family="Times,serif" font-size="14.00">Bytes</text>
<polygon fill="none" stroke="black" points="58.88,-14.25 58.88,-36.75 139.12,-36.75 139.12,-14.25 58.88,-14.25"/>
<text text-anchor="start" x="73.12" y="-20.45" font-family="Times,serif" font-size="14.00">UnitPrice</text>
<polygon fill="none" stroke="black" points="57.88,-13.25 57.88,-242.5 140.12,-242.5 140.12,-13.25 57.88,-13.25"/>
</g>
<!-- Track&#45;&gt;Album -->
<g id="edge4" class="edge">
<title>Track:AlbumId&#45;&gt;Album:AlbumId</title>
<path fill="none" stroke="black" d="M140.12,-160.5C238.79,-160.5 246.23,-250.83 337.95,-257.71"/>
<polygon fill="black" stroke="black" points="337.62,-261.2 347.74,-258.07 337.87,-254.21 337.62,-261.2"/>
</g>
<!-- Genre -->
<g id="node4" class="node">
<title>Genre</title>
<polygon fill="lightgray" stroke="none" points="352.88,-52.25 352.88,-74.75 421.12,-74.75 421.12,-52.25 352.88,-52.25"/>
<polygon fill="none" stroke="black" points="352.88,-52.25 352.88,-74.75 421.12,-74.75 421.12,-52.25 352.88,-52.25"/>
<text text-anchor="start" x="370.5" y="-58.45" font-family="Times,serif" font-size="14.00">Genre</text>
<polygon fill="#ffebcd" stroke="none" points="352.88,-27.5 352.88,-52.25 421.12,-52.25 421.12,-27.5 352.88,-27.5"/>
<polygon fill="none" stroke="black" points="352.88,-27.5 352.88,-52.25 421.12,-52.25 421.12,-27.5 352.88,-27.5"/>
<text text-anchor="start" x="355.88" y="-35.95" font-family="Times,serif" font-size="14.00">GenreId 🔑</text>
<polygon fill="none" stroke="black" points="352.88,-5 352.88,-27.5 421.12,-27.5 421.12,-5 352.88,-5"/>
<text text-anchor="start" x="370.5" y="-11.2" font-family="Times,serif" font-size="14.00">Name</text>
<polygon fill="none" stroke="black" points="351.88,-4 351.88,-75.75 422.12,-75.75 422.12,-4 351.88,-4"/>
</g>
<!-- Track&#45;&gt;Genre -->
<g id="edge3" class="edge">
<title>Track:GenreId&#45;&gt;Genre:GenreId</title>
<path fill="none" stroke="black" d="M140.12,-115.5C236.15,-115.5 250.88,-45.67 340.56,-40.21"/>
<polygon fill="black" stroke="black" points="340.47,-43.72 350.36,-39.92 340.26,-36.72 340.47,-43.72"/>
</g>
<!-- MediaType -->
<g id="node5" class="node">
<title>MediaType</title>
<polygon fill="lightgray" stroke="none" points="337.88,-150.25 337.88,-172.75 436.12,-172.75 436.12,-150.25 337.88,-150.25"/>
<polygon fill="none" stroke="black" points="337.88,-150.25 337.88,-172.75 436.12,-172.75 436.12,-150.25 337.88,-150.25"/>
<text text-anchor="start" x="355.5" y="-156.45" font-family="Times,serif" font-size="14.00">MediaType</text>
<polygon fill="#ffebcd" stroke="none" points="337.88,-125.5 337.88,-150.25 436.12,-150.25 436.12,-125.5 337.88,-125.5"/>
<polygon fill="none" stroke="black" points="337.88,-125.5 337.88,-150.25 436.12,-150.25 436.12,-125.5 337.88,-125.5"/>
<text text-anchor="start" x="340.88" y="-133.95" font-family="Times,serif" font-size="14.00">MediaTypeId 🔑</text>
<polygon fill="none" stroke="black" points="337.88,-103 337.88,-125.5 436.12,-125.5 436.12,-103 337.88,-103"/>
<text text-anchor="start" x="370.5" y="-109.2" font-family="Times,serif" font-size="14.00">Name</text>
<polygon fill="none" stroke="black" points="336.88,-102 336.88,-173.75 437.12,-173.75 437.12,-102 336.88,-102"/>
</g>
<!-- Track&#45;&gt;MediaType -->
<g id="edge2" class="edge">
<title>Track:MediaTypeId&#45;&gt;MediaType:MediaTypeId</title>
<path fill="none" stroke="black" d="M140.12,-138C223.64,-138 247.33,-137.89 325.48,-137.88"/>
<polygon fill="black" stroke="black" points="325.36,-141.38 335.36,-137.88 325.36,-134.38 325.36,-141.38"/>
</g>
</g>
</svg>
