<?xml version="1.0" encoding="UTF-8" standalone="no"?>
<!DOCTYPE svg PUBLIC "-//W3C//DTD SVG 1.1//EN"
 "http://www.w3.org/Graphics/SVG/1.1/DTD/svg11.dtd">
<!-- Generated by graphviz version 12.2.0 (20241103.1931)
 -->
<!-- Title: G Pages: 1 -->
<svg width="95pt" height="260pt"
 viewBox="0.00 0.00 95.00 260.00" xmlns="http://www.w3.org/2000/svg" xmlns:xlink="http://www.w3.org/1999/xlink">
<g id="graph0" class="graph" transform="scale(1 1) rotate(0) translate(4 256)">
<title>G</title>
<polygon fill="white" stroke="none" points="-4,4 -4,-256 91,-256 91,4 -4,4"/>
<!-- Artist -->
<g id="node1" class="node">
<title>Artist</title>
<polygon fill="lightgray" stroke="none" points="25.12,-6.75 25.12,-29.25 61.88,-29.25 61.88,-6.75 25.12,-6.75"/>
<polygon fill="none" stroke="black" points="25.12,-6.75 25.12,-29.25 61.88,-29.25 61.88,-6.75 25.12,-6.75"/>
<text text-anchor="start" x="28.12" y="-12.95" font-family="Times,serif" font-size="14.00">Artist</text>
<polygon fill="none" stroke="black" points="24.12,-5.75 24.12,-30.25 62.88,-30.25 62.88,-5.75 24.12,-5.75"/>
</g>
<!-- Album -->
<g id="node2" class="node">
<title>Album</title>
<polygon fill="lightgray" stroke="none" points="21.38,-60.75 21.38,-83.25 65.62,-83.25 65.62,-60.75 21.38,-60.75"/>
<polygon fill="none" stroke="black" points="21.38,-60.75 21.38,-83.25 65.62,-83.25 65.62,-60.75 21.38,-60.75"/>
<text text-anchor="start" x="24.38" y="-66.95" font-family="Times,serif" font-size="14.00">Album</text>
<polygon fill="none" stroke="black" points="20.38,-59.75 20.38,-84.25 66.62,-84.25 66.62,-59.75 20.38,-59.75"/>
</g>
<!-- Track -->
<g id="node3" class="node">
<title>Track</title>
<polygon fill="lightgray" stroke="none" points="24.75,-114.75 24.75,-137.25 62.25,-137.25 62.25,-114.75 24.75,-114.75"/>
<polygon fill="none" stroke="black" points="24.75,-114.75 24.75,-137.25 62.25,-137.25 62.25,-114.75 24.75,-114.75"/>
<text text-anchor="start" x="27.75" y="-120.95" font-family="Times,serif" font-size="14.00">Track</text>
<polygon fill="none" stroke="black" points="23.75,-113.75 23.75,-138.25 63.25,-138.25 63.25,-113.75 23.75,-113.75"/>
</g>
<!-- Genre -->
<g id="node4" class="node">
<title>Genre</title>
<polygon fill="lightgray" stroke="none" points="24,-168.75 24,-191.25 63,-191.25 63,-168.75 24,-168.75"/>
<polygon fill="none" stroke="black" points="24,-168.75 24,-191.25 63,-191.25 63,-168.75 24,-168.75"/>
<text text-anchor="start" x="27" y="-174.95" font-family="Times,serif" font-size="14.00">Genre</text>
<polygon fill="none" stroke="black" points="23,-167.75 23,-192.25 64,-192.25 64,-167.75 23,-167.75"/>
</g>
<!-- MediaType -->
<g id="node5" class="node">
<title>MediaType</title>
<polygon fill="lightgray" stroke="none" points="9,-222.75 9,-245.25 78,-245.25 78,-222.75 9,-222.75"/>
<polygon fill="none" stroke="black" points="9,-222.75 9,-245.25 78,-245.25 78,-222.75 9,-222.75"/>
<text text-anchor="start" x="12" y="-228.95" font-family="Times,serif" font-size="14.00">MediaType</text>
<polygon fill="none" stroke="black" points="8,-221.75 8,-246.25 79,-246.25 79,-221.75 8,-221.75"/>
</g>
</g>
</svg>
