<?xml version="1.0" encoding="UTF-8" standalone="no"?>
<!DOCTYPE svg PUBLIC "-//W3C//DTD SVG 1.1//EN"
 "http://www.w3.org/Graphics/SVG/1.1/DTD/svg11.dtd">
<!-- Generated by graphviz version 2.50.0 (0)
 -->
<!-- Title: G Pages: 1 -->
<svg width="720pt" height="506pt"
 viewBox="0.00 0.00 720.00 505.90" xmlns="http://www.w3.org/2000/svg" xmlns:xlink="http://www.w3.org/1999/xlink">
<g id="graph0" class="graph" transform="scale(0.65 0.65) rotate(0) translate(4 768.5)">
<title>G</title>
<polygon fill="white" stroke="transparent" points="-4,4 -4,-768.5 1095.43,-768.5 1095.43,4 -4,4"/>
<!-- Album -->
<g id="node1" class="node">
<title>Album</title>
<polygon fill="lightgray" stroke="transparent" points="669.43,-289.5 669.43,-310.5 743.43,-310.5 743.43,-289.5 669.43,-289.5"/>
<polygon fill="none" stroke="black" points="669.43,-289.5 669.43,-310.5 743.43,-310.5 743.43,-289.5 669.43,-289.5"/>
<text text-anchor="start" x="686.93" y="-296.3" font-family="Times,serif" font-size="14.00">Album</text>
<polygon fill="#ffebcd" stroke="transparent" points="669.43,-268.5 669.43,-289.5 743.43,-289.5 743.43,-268.5 669.43,-268.5"/>
<polygon fill="none" stroke="black" points="669.43,-268.5 669.43,-289.5 743.43,-289.5 743.43,-268.5 669.43,-268.5"/>
<text text-anchor="start" x="672.43" y="-275.3" font-family="Times,serif" font-size="14.00">AlbumId 🔑</text>
<polygon fill="none" stroke="black" points="669.43,-247.5 669.43,-268.5 743.43,-268.5 743.43,-247.5 669.43,-247.5"/>
<text text-anchor="start" x="693.43" y="-254.3" font-family="Times,serif" font-size="14.00">Title</text>
<polygon fill="none" stroke="black" points="669.43,-226.5 669.43,-247.5 743.43,-247.5 743.43,-226.5 669.43,-226.5"/>
<text text-anchor="start" x="684.93" y="-233.3" font-family="Times,serif" font-size="14.00">ArtistId</text>
<polygon fill="none" stroke="black" points="668.43,-225.5 668.43,-311.5 744.43,-311.5 744.43,-225.5 668.43,-225.5"/>
</g>
<!-- Artist -->
<g id="node2" class="node">
<title>Artist</title>
<polygon fill="lightgray" stroke="transparent" points="955.43,-183.5 955.43,-204.5 1022.43,-204.5 1022.43,-183.5 955.43,-183.5"/>
<polygon fill="none" stroke="black" points="955.43,-183.5 955.43,-204.5 1022.43,-204.5 1022.43,-183.5 955.43,-183.5"/>
<text text-anchor="start" x="973.43" y="-190.3" font-family="Times,serif" font-size="14.00">Artist</text>
<polygon fill="#ffebcd" stroke="transparent" points="955.43,-162.5 955.43,-183.5 1022.43,-183.5 1022.43,-162.5 955.43,-162.5"/>
<polygon fill="none" stroke="black" points="955.43,-162.5 955.43,-183.5 1022.43,-183.5 1022.43,-162.5 955.43,-162.5"/>
<text text-anchor="start" x="958.43" y="-169.3" font-family="Times,serif" font-size="14.00">ArtistId 🔑</text>
<polygon fill="none" stroke="black" points="955.43,-141.5 955.43,-162.5 1022.43,-162.5 1022.43,-141.5 955.43,-141.5"/>
<text text-anchor="start" x="971.93" y="-148.3" font-family="Times,serif" font-size="14.00">Name</text>
<polygon fill="none" stroke="black" points="953.93,-141 953.93,-206 1022.93,-206 1022.93,-141 953.93,-141"/>
</g>
<!-- Album&#45;&gt;Artist -->
<g id="edge1" class="edge">
<title>Album:ArtistId&#45;&gt;Artist:ArtistId</title>
<path fill="none" stroke="black" d="M744.43,-236.5C838.47,-236.5 855.68,-177.04 944.17,-172.74"/>
<polygon fill="black" stroke="black" points="944.51,-176.24 954.43,-172.5 944.35,-169.24 944.51,-176.24"/>
</g>
<!-- Customer -->
<g id="node3" class="node">
<title>Customer</title>
<polygon fill="lightgray" stroke="transparent" points="662.43,-738.5 662.43,-759.5 751.43,-759.5 751.43,-738.5 662.43,-738.5"/>
<polygon fill="none" stroke="black" points="662.43,-738.5 662.43,-759.5 751.43,-759.5 751.43,-738.5 662.43,-738.5"/>
<text text-anchor="start" x="679.93" y="-745.3" font-family="Times,serif" font-size="14.00">Customer</text>
<polygon fill="#ffebcd" stroke="transparent" points="662.43,-717.5 662.43,-738.5 751.43,-738.5 751.43,-717.5 662.43,-717.5"/>
<polygon fill="none" stroke="black" points="662.43,-717.5 662.43,-738.5 751.43,-738.5 751.43,-717.5 662.43,-717.5"/>
<text text-anchor="start" x="665.43" y="-724.3" font-family="Times,serif" font-size="14.00">CustomerId 🔑</text>
<polygon fill="none" stroke="black" points="662.43,-696.5 662.43,-717.5 751.43,-717.5 751.43,-696.5 662.43,-696.5"/>
<text text-anchor="start" x="677.93" y="-703.3" font-family="Times,serif" font-size="14.00">FirstName</text>
<polygon fill="none" stroke="black" points="662.43,-675.5 662.43,-696.5 751.43,-696.5 751.43,-675.5 662.43,-675.5"/>
<text text-anchor="start" x="678.43" y="-682.3" font-family="Times,serif" font-size="14.00">LastName</text>
<polygon fill="none" stroke="black" points="662.43,-654.5 662.43,-675.5 751.43,-675.5 751.43,-654.5 662.43,-654.5"/>
<text text-anchor="start" x="679.93" y="-661.3" font-family="Times,serif" font-size="14.00">Company</text>
<polygon fill="none" stroke="black" points="662.43,-633.5 662.43,-654.5 751.43,-654.5 751.43,-633.5 662.43,-633.5"/>
<text text-anchor="start" x="684.43" y="-640.3" font-family="Times,serif" font-size="14.00">Address</text>
<polygon fill="none" stroke="black" points="662.43,-612.5 662.43,-633.5 751.43,-633.5 751.43,-612.5 662.43,-612.5"/>
<text text-anchor="start" x="694.93" y="-619.3" font-family="Times,serif" font-size="14.00">City</text>
<polygon fill="none" stroke="black" points="662.43,-591.5 662.43,-612.5 751.43,-612.5 751.43,-591.5 662.43,-591.5"/>
<text text-anchor="start" x="692.93" y="-598.3" font-family="Times,serif" font-size="14.00">State</text>
<polygon fill="none" stroke="black" points="662.43,-570.5 662.43,-591.5 751.43,-591.5 751.43,-570.5 662.43,-570.5"/>
<text text-anchor="start" x="684.43" y="-577.3" font-family="Times,serif" font-size="14.00">Country</text>
<polygon fill="none" stroke="black" points="662.43,-549.5 662.43,-570.5 751.43,-570.5 751.43,-549.5 662.43,-549.5"/>
<text text-anchor="start" x="675.93" y="-556.3" font-family="Times,serif" font-size="14.00">PostalCode</text>
<polygon fill="none" stroke="black" points="662.43,-528.5 662.43,-549.5 751.43,-549.5 751.43,-528.5 662.43,-528.5"/>
<text text-anchor="start" x="689.93" y="-535.3" font-family="Times,serif" font-size="14.00">Phone</text>
<polygon fill="none" stroke="black" points="662.43,-507.5 662.43,-528.5 751.43,-528.5 751.43,-507.5 662.43,-507.5"/>
<text text-anchor="start" x="696.43" y="-514.3" font-family="Times,serif" font-size="14.00">Fax</text>
<polygon fill="none" stroke="black" points="662.43,-486.5 662.43,-507.5 751.43,-507.5 751.43,-486.5 662.43,-486.5"/>
<text text-anchor="start" x="689.93" y="-493.3" font-family="Times,serif" font-size="14.00">Email</text>
<polygon fill="none" stroke="black" points="662.43,-465.5 662.43,-486.5 751.43,-486.5 751.43,-465.5 662.43,-465.5"/>
<text text-anchor="start" x="668.93" y="-472.3" font-family="Times,serif" font-size="14.00">SupportRepId</text>
<polygon fill="none" stroke="black" points="660.93,-464.5 660.93,-760.5 751.93,-760.5 751.93,-464.5 660.93,-464.5"/>
</g>
<!-- Employee -->
<g id="node4" class="node">
<title>Employee</title>
<polygon fill="lightgray" stroke="transparent" points="943.43,-548.5 943.43,-569.5 1034.43,-569.5 1034.43,-548.5 943.43,-548.5"/>
<polygon fill="none" stroke="black" points="943.43,-548.5 943.43,-569.5 1034.43,-569.5 1034.43,-548.5 943.43,-548.5"/>
<text text-anchor="start" x="960.93" y="-555.3" font-family="Times,serif" font-size="14.00">Employee</text>
<polygon fill="#ffebcd" stroke="transparent" points="943.43,-527.5 943.43,-548.5 1034.43,-548.5 1034.43,-527.5 943.43,-527.5"/>
<polygon fill="none" stroke="black" points="943.43,-527.5 943.43,-548.5 1034.43,-548.5 1034.43,-527.5 943.43,-527.5"/>
<text text-anchor="start" x="946.43" y="-534.3" font-family="Times,serif" font-size="14.00">EmployeeId 🔑</text>
<polygon fill="none" stroke="black" points="943.43,-506.5 943.43,-527.5 1034.43,-527.5 1034.43,-506.5 943.43,-506.5"/>
<text text-anchor="start" x="960.43" y="-513.3" font-family="Times,serif" font-size="14.00">LastName</text>
<polygon fill="none" stroke="black" points="943.43,-485.5 943.43,-506.5 1034.43,-506.5 1034.43,-485.5 943.43,-485.5"/>
<text text-anchor="start" x="959.93" y="-492.3" font-family="Times,serif" font-size="14.00">FirstName</text>
<polygon fill="none" stroke="black" points="943.43,-464.5 943.43,-485.5 1034.43,-485.5 1034.43,-464.5 943.43,-464.5"/>
<text text-anchor="start" x="975.93" y="-471.3" font-family="Times,serif" font-size="14.00">Title</text>
<polygon fill="none" stroke="black" points="943.43,-443.5 943.43,-464.5 1034.43,-464.5 1034.43,-443.5 943.43,-443.5"/>
<text text-anchor="start" x="959.93" y="-450.3" font-family="Times,serif" font-size="14.00">ReportsTo</text>
<polygon fill="none" stroke="black" points="943.43,-422.5 943.43,-443.5 1034.43,-443.5 1034.43,-422.5 943.43,-422.5"/>
<text text-anchor="start" x="961.93" y="-429.3" font-family="Times,serif" font-size="14.00">BirthDate</text>
<polygon fill="none" stroke="black" points="943.43,-401.5 943.43,-422.5 1034.43,-422.5 1034.43,-401.5 943.43,-401.5"/>
<text text-anchor="start" x="963.93" y="-408.3" font-family="Times,serif" font-size="14.00">HireDate</text>
<polygon fill="none" stroke="black" points="943.43,-380.5 943.43,-401.5 1034.43,-401.5 1034.43,-380.5 943.43,-380.5"/>
<text text-anchor="start" x="966.43" y="-387.3" font-family="Times,serif" font-size="14.00">Address</text>
<polygon fill="none" stroke="black" points="943.43,-359.5 943.43,-380.5 1034.43,-380.5 1034.43,-359.5 943.43,-359.5"/>
<text text-anchor="start" x="976.93" y="-366.3" font-family="Times,serif" font-size="14.00">City</text>
<polygon fill="none" stroke="black" points="943.43,-338.5 943.43,-359.5 1034.43,-359.5 1034.43,-338.5 943.43,-338.5"/>
<text text-anchor="start" x="974.93" y="-345.3" font-family="Times,serif" font-size="14.00">State</text>
<polygon fill="none" stroke="black" points="943.43,-317.5 943.43,-338.5 1034.43,-338.5 1034.43,-317.5 943.43,-317.5"/>
<text text-anchor="start" x="966.43" y="-324.3" font-family="Times,serif" font-size="14.00">Country</text>
<polygon fill="none" stroke="black" points="943.43,-296.5 943.43,-317.5 1034.43,-317.5 1034.43,-296.5 943.43,-296.5"/>
<text text-anchor="start" x="957.93" y="-303.3" font-family="Times,serif" font-size="14.00">PostalCode</text>
<polygon fill="none" stroke="black" points="943.43,-275.5 943.43,-296.5 1034.43,-296.5 1034.43,-275.5 943.43,-275.5"/>
<text text-anchor="start" x="971.93" y="-282.3" font-family="Times,serif" font-size="14.00">Phone</text>
<polygon fill="none" stroke="black" points="943.43,-254.5 943.43,-275.5 1034.43,-275.5 1034.43,-254.5 943.43,-254.5"/>
<text text-anchor="start" x="978.43" y="-261.3" font-family="Times,serif" font-size="14.00">Fax</text>
<polygon fill="none" stroke="black" points="943.43,-233.5 943.43,-254.5 1034.43,-254.5 1034.43,-233.5 943.43,-233.5"/>
<text text-anchor="start" x="971.93" y="-240.3" font-family="Times,serif" font-size="14.00">Email</text>
<polygon fill="none" stroke="black" points="941.93,-232.5 941.93,-570.5 1034.93,-570.5 1034.93,-232.5 941.93,-232.5"/>
</g>
<!-- Customer&#45;&gt;Employee -->
<g id="edge2" class="edge">
<title>Customer:SupportRepId&#45;&gt;Employee:EmployeeId</title>
<path fill="none" stroke="black" d="M752.43,-475.5C837.92,-475.5 852.4,-533.67 932.35,-538.22"/>
<polygon fill="black" stroke="black" points="932.33,-541.72 942.43,-538.5 932.53,-534.72 932.33,-541.72"/>
</g>
<!-- Employee&#45;&gt;Employee -->
<g id="edge3" class="edge">
<title>Employee:ReportsTo&#45;&gt;Employee:EmployeeId</title>
<path fill="none" stroke="black" d="M943.18,-450.48C876.33,-447.6 792.93,-455.86 792.93,-496.5 792.93,-535.08 868.07,-544.47 932.88,-542.87"/>
<polygon fill="black" stroke="black" points="933.31,-546.36 943.18,-542.52 933.07,-539.36 933.31,-546.36"/>
</g>
<!-- Genre -->
<g id="node5" class="node">
<title>Genre</title>
<polygon fill="lightgray" stroke="transparent" points="672.43,-85.5 672.43,-106.5 741.43,-106.5 741.43,-85.5 672.43,-85.5"/>
<polygon fill="none" stroke="black" points="672.43,-85.5 672.43,-106.5 741.43,-106.5 741.43,-85.5 672.43,-85.5"/>
<text text-anchor="start" x="689.93" y="-92.3" font-family="Times,serif" font-size="14.00">Genre</text>
<polygon fill="#ffebcd" stroke="transparent" points="672.43,-64.5 672.43,-85.5 741.43,-85.5 741.43,-64.5 672.43,-64.5"/>
<polygon fill="none" stroke="black" points="672.43,-64.5 672.43,-85.5 741.43,-85.5 741.43,-64.5 672.43,-64.5"/>
<text text-anchor="start" x="675.43" y="-71.3" font-family="Times,serif" font-size="14.00">GenreId 🔑</text>
<polygon fill="none" stroke="black" points="672.43,-43.5 672.43,-64.5 741.43,-64.5 741.43,-43.5 672.43,-43.5"/>
<text text-anchor="start" x="689.93" y="-50.3" font-family="Times,serif" font-size="14.00">Name</text>
<polygon fill="none" stroke="black" points="670.93,-43 670.93,-108 741.93,-108 741.93,-43 670.93,-43"/>
</g>
<!-- Invoice -->
<g id="node6" class="node">
<title>Invoice</title>
<polygon fill="lightgray" stroke="transparent" points="357.43,-554.5 357.43,-575.5 463.43,-575.5 463.43,-554.5 357.43,-554.5"/>
<polygon fill="none" stroke="black" points="357.43,-554.5 357.43,-575.5 463.43,-575.5 463.43,-554.5 357.43,-554.5"/>
<text text-anchor="start" x="389.93" y="-561.3" font-family="Times,serif" font-size="14.00">Invoice</text>
<polygon fill="#ffebcd" stroke="transparent" points="357.43,-533.5 357.43,-554.5 463.43,-554.5 463.43,-533.5 357.43,-533.5"/>
<polygon fill="none" stroke="black" points="357.43,-533.5 357.43,-554.5 463.43,-554.5 463.43,-533.5 357.43,-533.5"/>
<text text-anchor="start" x="375.43" y="-540.3" font-family="Times,serif" font-size="14.00">InvoiceId 🔑</text>
<polygon fill="none" stroke="black" points="357.43,-512.5 357.43,-533.5 463.43,-533.5 463.43,-512.5 357.43,-512.5"/>
<text text-anchor="start" x="377.93" y="-519.3" font-family="Times,serif" font-size="14.00">CustomerId</text>
<polygon fill="none" stroke="black" points="357.43,-491.5 357.43,-512.5 463.43,-512.5 463.43,-491.5 357.43,-491.5"/>
<text text-anchor="start" x="376.93" y="-498.3" font-family="Times,serif" font-size="14.00">InvoiceDate</text>
<polygon fill="none" stroke="black" points="357.43,-470.5 357.43,-491.5 463.43,-491.5 463.43,-470.5 357.43,-470.5"/>
<text text-anchor="start" x="369.43" y="-477.3" font-family="Times,serif" font-size="14.00">BillingAddress</text>
<polygon fill="none" stroke="black" points="357.43,-449.5 357.43,-470.5 463.43,-470.5 463.43,-449.5 357.43,-449.5"/>
<text text-anchor="start" x="379.93" y="-456.3" font-family="Times,serif" font-size="14.00">BillingCity</text>
<polygon fill="none" stroke="black" points="357.43,-428.5 357.43,-449.5 463.43,-449.5 463.43,-428.5 357.43,-428.5"/>
<text text-anchor="start" x="377.93" y="-435.3" font-family="Times,serif" font-size="14.00">BillingState</text>
<polygon fill="none" stroke="black" points="357.43,-407.5 357.43,-428.5 463.43,-428.5 463.43,-407.5 357.43,-407.5"/>
<text text-anchor="start" x="369.43" y="-414.3" font-family="Times,serif" font-size="14.00">BillingCountry</text>
<polygon fill="none" stroke="black" points="357.43,-386.5 357.43,-407.5 463.43,-407.5 463.43,-386.5 357.43,-386.5"/>
<text text-anchor="start" x="360.43" y="-393.3" font-family="Times,serif" font-size="14.00">BillingPostalCode</text>
<polygon fill="none" stroke="black" points="357.43,-365.5 357.43,-386.5 463.43,-386.5 463.43,-365.5 357.43,-365.5"/>
<text text-anchor="start" x="395.93" y="-372.3" font-family="Times,serif" font-size="14.00">Total</text>
<polygon fill="none" stroke="black" points="356.43,-364.5 356.43,-576.5 464.43,-576.5 464.43,-364.5 356.43,-364.5"/>
</g>
<!-- Invoice&#45;&gt;Customer -->
<g id="edge4" class="edge">
<title>Invoice:CustomerId&#45;&gt;Customer:CustomerId</title>
<path fill="none" stroke="black" d="M464.43,-523.5C587.21,-523.5 538.08,-717.05 651.12,-728.02"/>
<polygon fill="black" stroke="black" points="651.28,-731.53 661.43,-728.5 651.6,-724.53 651.28,-731.53"/>
</g>
<!-- InvoiceLine -->
<g id="node7" class="node">
<title>InvoiceLine</title>
<polygon fill="lightgray" stroke="transparent" points="62.43,-451.5 62.43,-472.5 163.43,-472.5 163.43,-451.5 62.43,-451.5"/>
<polygon fill="none" stroke="black" points="62.43,-451.5 62.43,-472.5 163.43,-472.5 163.43,-451.5 62.43,-451.5"/>
<text text-anchor="start" x="79.93" y="-458.3" font-family="Times,serif" font-size="14.00">InvoiceLine</text>
<polygon fill="#ffebcd" stroke="transparent" points="62.43,-430.5 62.43,-451.5 163.43,-451.5 163.43,-430.5 62.43,-430.5"/>
<polygon fill="none" stroke="black" points="62.43,-430.5 62.43,-451.5 163.43,-451.5 163.43,-430.5 62.43,-430.5"/>
<text text-anchor="start" x="65.43" y="-437.3" font-family="Times,serif" font-size="14.00">InvoiceLineId 🔑</text>
<polygon fill="none" stroke="black" points="62.43,-409.5 62.43,-430.5 163.43,-430.5 163.43,-409.5 62.43,-409.5"/>
<text text-anchor="start" x="86.93" y="-416.3" font-family="Times,serif" font-size="14.00">InvoiceId</text>
<polygon fill="none" stroke="black" points="62.43,-388.5 62.43,-409.5 163.43,-409.5 163.43,-388.5 62.43,-388.5"/>
<text text-anchor="start" x="91.43" y="-395.3" font-family="Times,serif" font-size="14.00">TrackId</text>
<polygon fill="none" stroke="black" points="62.43,-367.5 62.43,-388.5 163.43,-388.5 163.43,-367.5 62.43,-367.5"/>
<text text-anchor="start" x="86.93" y="-374.3" font-family="Times,serif" font-size="14.00">UnitPrice</text>
<polygon fill="none" stroke="black" points="62.43,-346.5 62.43,-367.5 163.43,-367.5 163.43,-346.5 62.43,-346.5"/>
<text text-anchor="start" x="88.93" y="-353.3" font-family="Times,serif" font-size="14.00">Quantity</text>
<polygon fill="none" stroke="black" points="60.93,-345.5 60.93,-473.5 163.93,-473.5 163.93,-345.5 60.93,-345.5"/>
</g>
<!-- InvoiceLine&#45;&gt;Invoice -->
<g id="edge6" class="edge">
<title>InvoiceLine:InvoiceId&#45;&gt;Invoice:InvoiceId</title>
<path fill="none" stroke="black" d="M164.43,-420.5C262.54,-420.5 255.48,-536.17 346.4,-544.08"/>
<polygon fill="black" stroke="black" points="346.29,-547.57 356.43,-544.5 346.59,-540.58 346.29,-547.57"/>
</g>
<!-- Track -->
<g id="node11" class="node">
<title>Track</title>
<polygon fill="lightgray" stroke="transparent" points="370.43,-285.5 370.43,-306.5 451.43,-306.5 451.43,-285.5 370.43,-285.5"/>
<polygon fill="none" stroke="black" points="370.43,-285.5 370.43,-306.5 451.43,-306.5 451.43,-285.5 370.43,-285.5"/>
<text text-anchor="start" x="394.93" y="-292.3" font-family="Times,serif" font-size="14.00">Track</text>
<polygon fill="#ffebcd" stroke="transparent" points="370.43,-264.5 370.43,-285.5 451.43,-285.5 451.43,-264.5 370.43,-264.5"/>
<polygon fill="none" stroke="black" points="370.43,-264.5 370.43,-285.5 451.43,-285.5 451.43,-264.5 370.43,-264.5"/>
<text text-anchor="start" x="380.43" y="-271.3" font-family="Times,serif" font-size="14.00">TrackId 🔑</text>
<polygon fill="none" stroke="black" points="370.43,-243.5 370.43,-264.5 451.43,-264.5 451.43,-243.5 370.43,-243.5"/>
<text text-anchor="start" x="393.93" y="-250.3" font-family="Times,serif" font-size="14.00">Name</text>
<polygon fill="none" stroke="black" points="370.43,-222.5 370.43,-243.5 451.43,-243.5 451.43,-222.5 370.43,-222.5"/>
<text text-anchor="start" x="385.93" y="-229.3" font-family="Times,serif" font-size="14.00">AlbumId</text>
<polygon fill="none" stroke="black" points="370.43,-201.5 370.43,-222.5 451.43,-222.5 451.43,-201.5 370.43,-201.5"/>
<text text-anchor="start" x="373.43" y="-208.3" font-family="Times,serif" font-size="14.00">MediaTypeId</text>
<polygon fill="none" stroke="black" points="370.43,-180.5 370.43,-201.5 451.43,-201.5 451.43,-180.5 370.43,-180.5"/>
<text text-anchor="start" x="388.43" y="-187.3" font-family="Times,serif" font-size="14.00">GenreId</text>
<polygon fill="none" stroke="black" points="370.43,-159.5 370.43,-180.5 451.43,-180.5 451.43,-159.5 370.43,-159.5"/>
<text text-anchor="start" x="382.43" y="-166.3" font-family="Times,serif" font-size="14.00">Composer</text>
<polygon fill="none" stroke="black" points="370.43,-138.5 370.43,-159.5 451.43,-159.5 451.43,-138.5 370.43,-138.5"/>
<text text-anchor="start" x="375.43" y="-145.3" font-family="Times,serif" font-size="14.00">Milliseconds</text>
<polygon fill="none" stroke="black" points="370.43,-117.5 370.43,-138.5 451.43,-138.5 451.43,-117.5 370.43,-117.5"/>
<text text-anchor="start" x="395.43" y="-124.3" font-family="Times,serif" font-size="14.00">Bytes</text>
<polygon fill="none" stroke="black" points="370.43,-96.5 370.43,-117.5 451.43,-117.5 451.43,-96.5 370.43,-96.5"/>
<text text-anchor="start" x="384.93" y="-103.3" font-family="Times,serif" font-size="14.00">UnitPrice</text>
<polygon fill="none" stroke="black" points="368.93,-95.5 368.93,-307.5 451.93,-307.5 451.93,-95.5 368.93,-95.5"/>
</g>
<!-- InvoiceLine&#45;&gt;Track -->
<g id="edge5" class="edge">
<title>InvoiceLine:TrackId&#45;&gt;Track:TrackId</title>
<path fill="none" stroke="black" d="M164.43,-398.5C267.15,-398.5 263.55,-283.53 359.21,-275.9"/>
<polygon fill="black" stroke="black" points="359.57,-279.39 369.43,-275.5 359.3,-272.39 359.57,-279.39"/>
</g>
<!-- MediaType -->
<g id="node8" class="node">
<title>MediaType</title>
<polygon fill="lightgray" stroke="transparent" points="657.43,-176.5 657.43,-197.5 756.43,-197.5 756.43,-176.5 657.43,-176.5"/>
<polygon fill="none" stroke="black" points="657.43,-176.5 657.43,-197.5 756.43,-197.5 756.43,-176.5 657.43,-176.5"/>
<text text-anchor="start" x="674.93" y="-183.3" font-family="Times,serif" font-size="14.00">MediaType</text>
<polygon fill="#ffebcd" stroke="transparent" points="657.43,-155.5 657.43,-176.5 756.43,-176.5 756.43,-155.5 657.43,-155.5"/>
<polygon fill="none" stroke="black" points="657.43,-155.5 657.43,-176.5 756.43,-176.5 756.43,-155.5 657.43,-155.5"/>
<text text-anchor="start" x="660.43" y="-162.3" font-family="Times,serif" font-size="14.00">MediaTypeId 🔑</text>
<polygon fill="none" stroke="black" points="657.43,-134.5 657.43,-155.5 756.43,-155.5 756.43,-134.5 657.43,-134.5"/>
<text text-anchor="start" x="689.93" y="-141.3" font-family="Times,serif" font-size="14.00">Name</text>
<polygon fill="none" stroke="black" points="655.93,-134 655.93,-199 756.93,-199 756.93,-134 655.93,-134"/>
</g>
<!-- Playlist -->
<g id="node9" class="node">
<title>Playlist</title>
<polygon fill="lightgray" stroke="transparent" points="372.43,-46.5 372.43,-67.5 448.43,-67.5 448.43,-46.5 372.43,-46.5"/>
<polygon fill="none" stroke="black" points="372.43,-46.5 372.43,-67.5 448.43,-67.5 448.43,-46.5 372.43,-46.5"/>
<text text-anchor="start" x="389.93" y="-53.3" font-family="Times,serif" font-size="14.00">Playlist</text>
<polygon fill="#ffebcd" stroke="transparent" points="372.43,-25.5 372.43,-46.5 448.43,-46.5 448.43,-25.5 372.43,-25.5"/>
<polygon fill="none" stroke="black" points="372.43,-25.5 372.43,-46.5 448.43,-46.5 448.43,-25.5 372.43,-25.5"/>
<text text-anchor="start" x="375.43" y="-32.3" font-family="Times,serif" font-size="14.00">PlaylistId 🔑</text>
<polygon fill="none" stroke="black" points="372.43,-4.5 372.43,-25.5 448.43,-25.5 448.43,-4.5 372.43,-4.5"/>
<text text-anchor="start" x="393.43" y="-11.3" font-family="Times,serif" font-size="14.00">Name</text>
<polygon fill="none" stroke="black" points="371.43,-4 371.43,-69 449.43,-69 449.43,-4 371.43,-4"/>
</g>
<!-- PlaylistTrack -->
<g id="node10" class="node">
<title>PlaylistTrack</title>
<polygon fill="lightgray" stroke="transparent" points="73.43,-109.5 73.43,-130.5 152.43,-130.5 152.43,-109.5 73.43,-109.5"/>
<polygon fill="none" stroke="black" points="73.43,-109.5 73.43,-130.5 152.43,-130.5 152.43,-109.5 73.43,-109.5"/>
<text text-anchor="start" x="76.43" y="-116.3" font-family="Times,serif" font-size="14.00">PlaylistTrack</text>
<polygon fill="#ffebcd" stroke="transparent" points="73.43,-88.5 73.43,-109.5 152.43,-109.5 152.43,-88.5 73.43,-88.5"/>
<polygon fill="none" stroke="black" points="73.43,-88.5 73.43,-109.5 152.43,-109.5 152.43,-88.5 73.43,-88.5"/>
<text text-anchor="start" x="77.93" y="-95.3" font-family="Times,serif" font-size="14.00">PlaylistId 🔑</text>
<polygon fill="#ffebcd" stroke="transparent" points="73.43,-67.5 73.43,-88.5 152.43,-88.5 152.43,-67.5 73.43,-67.5"/>
<polygon fill="none" stroke="black" points="73.43,-67.5 73.43,-88.5 152.43,-88.5 152.43,-67.5 73.43,-67.5"/>
<text text-anchor="start" x="82.43" y="-74.3" font-family="Times,serif" font-size="14.00">TrackId 🔑</text>
<polygon fill="none" stroke="black" points="71.93,-67 71.93,-132 152.93,-132 152.93,-67 71.93,-67"/>
</g>
<!-- PlaylistTrack&#45;&gt;Playlist -->
<g id="edge8" class="edge">
<title>PlaylistTrack:PlaylistId&#45;&gt;Playlist:PlaylistId</title>
<path fill="none" stroke="black" d="M153.43,-98.5C250.84,-98.5 269.36,-39.73 361.38,-35.72"/>
<polygon fill="black" stroke="black" points="361.51,-39.21 371.43,-35.5 361.36,-32.22 361.51,-39.21"/>
</g>
<!-- PlaylistTrack&#45;&gt;Track -->
<g id="edge7" class="edge">
<title>PlaylistTrack:TrackId&#45;&gt;Track:TrackId</title>
<path fill="none" stroke="black" d="M153.43,-77.5C280.1,-77.5 241.5,-264.82 359.13,-275.06"/>
<polygon fill="black" stroke="black" points="359.29,-278.57 369.43,-275.5 359.59,-271.58 359.29,-278.57"/>
</g>
<!-- Track&#45;&gt;Album -->
<g id="edge11" class="edge">
<title>Track:AlbumId&#45;&gt;Album:AlbumId</title>
<path fill="none" stroke="black" d="M452.43,-233.5C547.13,-233.5 568.79,-276.32 658.36,-279.33"/>
<polygon fill="black" stroke="black" points="658.37,-282.83 668.43,-279.5 658.49,-275.83 658.37,-282.83"/>
</g>
<!-- Track&#45;&gt;Genre -->
<g id="edge10" class="edge">
<title>Track:GenreId&#45;&gt;Genre:GenreId</title>
<path fill="none" stroke="black" d="M452.43,-190.5C559.13,-190.5 561.26,-81.64 661.42,-74.83"/>
<polygon fill="black" stroke="black" points="661.55,-78.33 671.43,-74.5 661.32,-71.33 661.55,-78.33"/>
</g>
<!-- Track&#45;&gt;MediaType -->
<g id="edge9" class="edge">
<title>Track:MediaTypeId&#45;&gt;MediaType:MediaTypeId</title>
<path fill="none" stroke="black" d="M452.43,-212.5C542.02,-212.5 561.95,-168.92 646.37,-165.69"/>
<polygon fill="black" stroke="black" points="646.5,-169.19 656.43,-165.5 646.36,-162.19 646.5,-169.19"/>
</g>
</g>
</svg>
