<?xml version="1.0" encoding="UTF-8" standalone="no"?>
<!DOCTYPE svg PUBLIC "-//W3C//DTD SVG 1.1//EN"
 "http://www.w3.org/Graphics/SVG/1.1/DTD/svg11.dtd">
<!-- Generated by graphviz version 14.1.1 (20251213.1925)
 -->
<!-- Title: G Pages: 1 -->
<svg width="720pt" height="505pt"
 viewBox="0.00 0.00 720.00 505.00" xmlns="http://www.w3.org/2000/svg" xmlns:xlink="http://www.w3.org/1999/xlink">
<g id="graph0" class="graph" transform="scale(0.54799 0.54799) rotate(0) translate(4 918.12)">
<title>G</title>
<polygon fill="white" stroke="none" points="-4,4 -4,-918.12 1309.89,-918.12 1309.89,4 -4,4"/>
<!-- Album -->
<g id="node1" class="node">
<title>Album</title>
<polygon fill="lightgray" stroke="none" points="808.14,-310.5 808.14,-333 881.64,-333 881.64,-310.5 808.14,-310.5"/>
<polygon fill="none" stroke="black" points="808.14,-310.5 808.14,-333 881.64,-333 881.64,-310.5 808.14,-310.5"/>
<text xml:space="preserve" text-anchor="start" x="825.77" y="-316.7" font-family="Times,serif" font-size="14.00">Album</text>
<polygon fill="#ffebcd" stroke="none" points="808.14,-285.75 808.14,-310.5 881.64,-310.5 881.64,-285.75 808.14,-285.75"/>
<polygon fill="none" stroke="black" points="808.14,-285.75 808.14,-310.5 881.64,-310.5 881.64,-285.75 808.14,-285.75"/>
<text xml:space="preserve" text-anchor="start" x="811.14" y="-294.2" font-family="Times,serif" font-size="14.00">AlbumId 🔑</text>
<polygon fill="none" stroke="black" points="808.14,-263.25 808.14,-285.75 881.64,-285.75 881.64,-263.25 808.14,-263.25"/>
<text xml:space="preserve" text-anchor="start" x="832.14" y="-269.45" font-family="Times,serif" font-size="14.00">Title</text>
<polygon fill="none" stroke="black" points="808.14,-240.75 808.14,-263.25 881.64,-263.25 881.64,-240.75 808.14,-240.75"/>
<text xml:space="preserve" text-anchor="start" x="823.89" y="-246.95" font-family="Times,serif" font-size="14.00">ArtistId</text>
<polygon fill="none" stroke="black" points="807.14,-239.75 807.14,-334 882.64,-334 882.64,-239.75 807.14,-239.75"/>
</g>
<!-- Artist -->
<g id="node2" class="node">
<title>Artist</title>
<polygon fill="lightgray" stroke="none" points="1148.89,-197.25 1148.89,-219.75 1214.89,-219.75 1214.89,-197.25 1148.89,-197.25"/>
<polygon fill="none" stroke="black" points="1148.89,-197.25 1148.89,-219.75 1214.89,-219.75 1214.89,-197.25 1148.89,-197.25"/>
<text xml:space="preserve" text-anchor="start" x="1166.52" y="-203.45" font-family="Times,serif" font-size="14.00">Artist</text>
<polygon fill="#ffebcd" stroke="none" points="1148.89,-172.5 1148.89,-197.25 1214.89,-197.25 1214.89,-172.5 1148.89,-172.5"/>
<polygon fill="none" stroke="black" points="1148.89,-172.5 1148.89,-197.25 1214.89,-197.25 1214.89,-172.5 1148.89,-172.5"/>
<text xml:space="preserve" text-anchor="start" x="1151.89" y="-180.95" font-family="Times,serif" font-size="14.00">ArtistId 🔑</text>
<polygon fill="none" stroke="black" points="1148.89,-150 1148.89,-172.5 1214.89,-172.5 1214.89,-150 1148.89,-150"/>
<text xml:space="preserve" text-anchor="start" x="1165.39" y="-156.2" font-family="Times,serif" font-size="14.00">Name</text>
<polygon fill="none" stroke="black" points="1147.89,-149 1147.89,-220.75 1215.89,-220.75 1215.89,-149 1147.89,-149"/>
</g>
<!-- Album&#45;&gt;Artist -->
<g id="edge1" class="edge">
<title>Album:ArtistId&#45;&gt;Artist:ArtistId</title>
<path fill="none" stroke="black" d="M882.64,-252C1000.33,-252 1024.76,-189.13 1136.44,-185.08"/>
<polygon fill="black" stroke="black" points="1136.44,-188.58 1146.38,-184.9 1136.32,-181.58 1136.44,-188.58"/>
</g>
<!-- Customer -->
<g id="node3" class="node">
<title>Customer</title>
<polygon fill="lightgray" stroke="none" points="800.64,-791 800.64,-813.5 889.14,-813.5 889.14,-791 800.64,-791"/>
<polygon fill="none" stroke="black" points="800.64,-791 800.64,-813.5 889.14,-813.5 889.14,-791 800.64,-791"/>
<text xml:space="preserve" text-anchor="start" x="818.27" y="-797.2" font-family="Times,serif" font-size="14.00">Customer</text>
<polygon fill="#ffebcd" stroke="none" points="800.64,-766.25 800.64,-791 889.14,-791 889.14,-766.25 800.64,-766.25"/>
<polygon fill="none" stroke="black" points="800.64,-766.25 800.64,-791 889.14,-791 889.14,-766.25 800.64,-766.25"/>
<text xml:space="preserve" text-anchor="start" x="803.64" y="-774.7" font-family="Times,serif" font-size="14.00">CustomerId 🔑</text>
<polygon fill="none" stroke="black" points="800.64,-743.75 800.64,-766.25 889.14,-766.25 889.14,-743.75 800.64,-743.75"/>
<text xml:space="preserve" text-anchor="start" x="816.02" y="-749.95" font-family="Times,serif" font-size="14.00">FirstName</text>
<polygon fill="none" stroke="black" points="800.64,-721.25 800.64,-743.75 889.14,-743.75 889.14,-721.25 800.64,-721.25"/>
<text xml:space="preserve" text-anchor="start" x="816.77" y="-727.45" font-family="Times,serif" font-size="14.00">LastName</text>
<polygon fill="none" stroke="black" points="800.64,-698.75 800.64,-721.25 889.14,-721.25 889.14,-698.75 800.64,-698.75"/>
<text xml:space="preserve" text-anchor="start" x="818.27" y="-704.95" font-family="Times,serif" font-size="14.00">Company</text>
<polygon fill="none" stroke="black" points="800.64,-676.25 800.64,-698.75 889.14,-698.75 889.14,-676.25 800.64,-676.25"/>
<text xml:space="preserve" text-anchor="start" x="822.77" y="-682.45" font-family="Times,serif" font-size="14.00">Address</text>
<polygon fill="none" stroke="black" points="800.64,-653.75 800.64,-676.25 889.14,-676.25 889.14,-653.75 800.64,-653.75"/>
<text xml:space="preserve" text-anchor="start" x="833.27" y="-659.95" font-family="Times,serif" font-size="14.00">City</text>
<polygon fill="none" stroke="black" points="800.64,-631.25 800.64,-653.75 889.14,-653.75 889.14,-631.25 800.64,-631.25"/>
<text xml:space="preserve" text-anchor="start" x="831.39" y="-637.45" font-family="Times,serif" font-size="14.00">State</text>
<polygon fill="none" stroke="black" points="800.64,-608.75 800.64,-631.25 889.14,-631.25 889.14,-608.75 800.64,-608.75"/>
<text xml:space="preserve" text-anchor="start" x="822.77" y="-614.95" font-family="Times,serif" font-size="14.00">Country</text>
<polygon fill="none" stroke="black" points="800.64,-586.25 800.64,-608.75 889.14,-608.75 889.14,-586.25 800.64,-586.25"/>
<text xml:space="preserve" text-anchor="start" x="814.14" y="-592.45" font-family="Times,serif" font-size="14.00">PostalCode</text>
<polygon fill="none" stroke="black" points="800.64,-563.75 800.64,-586.25 889.14,-586.25 889.14,-563.75 800.64,-563.75"/>
<text xml:space="preserve" text-anchor="start" x="828.02" y="-569.95" font-family="Times,serif" font-size="14.00">Phone</text>
<polygon fill="none" stroke="black" points="800.64,-541.25 800.64,-563.75 889.14,-563.75 889.14,-541.25 800.64,-541.25"/>
<text xml:space="preserve" text-anchor="start" x="834.77" y="-547.45" font-family="Times,serif" font-size="14.00">Fax</text>
<polygon fill="none" stroke="black" points="800.64,-518.75 800.64,-541.25 889.14,-541.25 889.14,-518.75 800.64,-518.75"/>
<text xml:space="preserve" text-anchor="start" x="828.39" y="-524.95" font-family="Times,serif" font-size="14.00">Email</text>
<polygon fill="none" stroke="black" points="800.64,-496.25 800.64,-518.75 889.14,-518.75 889.14,-496.25 800.64,-496.25"/>
<text xml:space="preserve" text-anchor="start" x="807.02" y="-502.45" font-family="Times,serif" font-size="14.00">SupportRepId</text>
<polygon fill="none" stroke="black" points="799.64,-495.25 799.64,-814.5 890.14,-814.5 890.14,-495.25 799.64,-495.25"/>
</g>
<!-- Employee -->
<g id="node4" class="node">
<title>Employee</title>
<polygon fill="lightgray" stroke="none" points="1136.52,-587.5 1136.52,-610 1227.27,-610 1227.27,-587.5 1136.52,-587.5"/>
<polygon fill="none" stroke="black" points="1136.52,-587.5 1136.52,-610 1227.27,-610 1227.27,-587.5 1136.52,-587.5"/>
<text xml:space="preserve" text-anchor="start" x="1154.14" y="-593.7" font-family="Times,serif" font-size="14.00">Employee</text>
<polygon fill="#ffebcd" stroke="none" points="1136.52,-562.75 1136.52,-587.5 1227.27,-587.5 1227.27,-562.75 1136.52,-562.75"/>
<polygon fill="none" stroke="black" points="1136.52,-562.75 1136.52,-587.5 1227.27,-587.5 1227.27,-562.75 1136.52,-562.75"/>
<text xml:space="preserve" text-anchor="start" x="1139.52" y="-571.2" font-family="Times,serif" font-size="14.00">EmployeeId 🔑</text>
<polygon fill="none" stroke="black" points="1136.52,-540.25 1136.52,-562.75 1227.27,-562.75 1227.27,-540.25 1136.52,-540.25"/>
<text xml:space="preserve" text-anchor="start" x="1153.77" y="-546.45" font-family="Times,serif" font-size="14.00">LastName</text>
<polygon fill="none" stroke="black" points="1136.52,-517.75 1136.52,-540.25 1227.27,-540.25 1227.27,-517.75 1136.52,-517.75"/>
<text xml:space="preserve" text-anchor="start" x="1153.02" y="-523.95" font-family="Times,serif" font-size="14.00">FirstName</text>
<polygon fill="none" stroke="black" points="1136.52,-495.25 1136.52,-517.75 1227.27,-517.75 1227.27,-495.25 1136.52,-495.25"/>
<text xml:space="preserve" text-anchor="start" x="1169.14" y="-501.45" font-family="Times,serif" font-size="14.00">Title</text>
<polygon fill="none" stroke="black" points="1136.52,-472.75 1136.52,-495.25 1227.27,-495.25 1227.27,-472.75 1136.52,-472.75"/>
<text xml:space="preserve" text-anchor="start" x="1153.39" y="-478.95" font-family="Times,serif" font-size="14.00">ReportsTo</text>
<polygon fill="none" stroke="black" points="1136.52,-450.25 1136.52,-472.75 1227.27,-472.75 1227.27,-450.25 1136.52,-450.25"/>
<text xml:space="preserve" text-anchor="start" x="1155.27" y="-456.45" font-family="Times,serif" font-size="14.00">BirthDate</text>
<polygon fill="none" stroke="black" points="1136.52,-427.75 1136.52,-450.25 1227.27,-450.25 1227.27,-427.75 1136.52,-427.75"/>
<text xml:space="preserve" text-anchor="start" x="1157.14" y="-433.95" font-family="Times,serif" font-size="14.00">HireDate</text>
<polygon fill="none" stroke="black" points="1136.52,-405.25 1136.52,-427.75 1227.27,-427.75 1227.27,-405.25 1136.52,-405.25"/>
<text xml:space="preserve" text-anchor="start" x="1159.77" y="-411.45" font-family="Times,serif" font-size="14.00">Address</text>
<polygon fill="none" stroke="black" points="1136.52,-382.75 1136.52,-405.25 1227.27,-405.25 1227.27,-382.75 1136.52,-382.75"/>
<text xml:space="preserve" text-anchor="start" x="1170.27" y="-388.95" font-family="Times,serif" font-size="14.00">City</text>
<polygon fill="none" stroke="black" points="1136.52,-360.25 1136.52,-382.75 1227.27,-382.75 1227.27,-360.25 1136.52,-360.25"/>
<text xml:space="preserve" text-anchor="start" x="1168.39" y="-366.45" font-family="Times,serif" font-size="14.00">State</text>
<polygon fill="none" stroke="black" points="1136.52,-337.75 1136.52,-360.25 1227.27,-360.25 1227.27,-337.75 1136.52,-337.75"/>
<text xml:space="preserve" text-anchor="start" x="1159.77" y="-343.95" font-family="Times,serif" font-size="14.00">Country</text>
<polygon fill="none" stroke="black" points="1136.52,-315.25 1136.52,-337.75 1227.27,-337.75 1227.27,-315.25 1136.52,-315.25"/>
<text xml:space="preserve" text-anchor="start" x="1151.14" y="-321.45" font-family="Times,serif" font-size="14.00">PostalCode</text>
<polygon fill="none" stroke="black" points="1136.52,-292.75 1136.52,-315.25 1227.27,-315.25 1227.27,-292.75 1136.52,-292.75"/>
<text xml:space="preserve" text-anchor="start" x="1165.02" y="-298.95" font-family="Times,serif" font-size="14.00">Phone</text>
<polygon fill="none" stroke="black" points="1136.52,-270.25 1136.52,-292.75 1227.27,-292.75 1227.27,-270.25 1136.52,-270.25"/>
<text xml:space="preserve" text-anchor="start" x="1171.77" y="-276.45" font-family="Times,serif" font-size="14.00">Fax</text>
<polygon fill="none" stroke="black" points="1136.52,-247.75 1136.52,-270.25 1227.27,-270.25 1227.27,-247.75 1136.52,-247.75"/>
<text xml:space="preserve" text-anchor="start" x="1165.39" y="-253.95" font-family="Times,serif" font-size="14.00">Email</text>
<polygon fill="none" stroke="black" points="1135.52,-246.75 1135.52,-611 1228.27,-611 1228.27,-246.75 1135.52,-246.75"/>
</g>
<!-- Customer&#45;&gt;Employee -->
<g id="edge2" class="edge">
<title>Customer:SupportRepId&#45;&gt;Employee:EmployeeId</title>
<path fill="none" stroke="black" d="M890.14,-507.5C999.4,-507.5 1020.98,-570.58 1124.24,-574.89"/>
<polygon fill="black" stroke="black" points="1123.93,-578.39 1134,-575.09 1124.08,-571.39 1123.93,-578.39"/>
</g>
<!-- Employee&#45;&gt;Employee -->
<g id="edge3" class="edge">
<title>Employee:ReportsTo&#45;&gt;Employee:EmployeeId</title>
<path fill="none" stroke="black" d="M1136.77,-480.32C1059.72,-476.7 959.02,-484.64 959.02,-529.56 959.02,-572.29 1050.12,-581.56 1125.32,-579.25"/>
<polygon fill="black" stroke="black" points="1125.4,-582.75 1135.25,-578.86 1125.12,-575.75 1125.4,-582.75"/>
</g>
<!-- Genre -->
<g id="node5" class="node">
<title>Genre</title>
<polygon fill="lightgray" stroke="none" points="810.77,-92.25 810.77,-114.75 879.02,-114.75 879.02,-92.25 810.77,-92.25"/>
<polygon fill="none" stroke="black" points="810.77,-92.25 810.77,-114.75 879.02,-114.75 879.02,-92.25 810.77,-92.25"/>
<text xml:space="preserve" text-anchor="start" x="828.39" y="-98.45" font-family="Times,serif" font-size="14.00">Genre</text>
<polygon fill="#ffebcd" stroke="none" points="810.77,-67.5 810.77,-92.25 879.02,-92.25 879.02,-67.5 810.77,-67.5"/>
<polygon fill="none" stroke="black" points="810.77,-67.5 810.77,-92.25 879.02,-92.25 879.02,-67.5 810.77,-67.5"/>
<text xml:space="preserve" text-anchor="start" x="813.77" y="-75.95" font-family="Times,serif" font-size="14.00">GenreId 🔑</text>
<polygon fill="none" stroke="black" points="810.77,-45 810.77,-67.5 879.02,-67.5 879.02,-45 810.77,-45"/>
<text xml:space="preserve" text-anchor="start" x="828.39" y="-51.2" font-family="Times,serif" font-size="14.00">Name</text>
<polygon fill="none" stroke="black" points="809.77,-44 809.77,-115.75 880.02,-115.75 880.02,-44 809.77,-44"/>
</g>
<!-- Invoice -->
<g id="node6" class="node">
<title>Invoice</title>
<polygon fill="lightgray" stroke="none" points="438.39,-596 438.39,-618.5 543.39,-618.5 543.39,-596 438.39,-596"/>
<polygon fill="none" stroke="black" points="438.39,-596 438.39,-618.5 543.39,-618.5 543.39,-596 438.39,-596"/>
<text xml:space="preserve" text-anchor="start" x="470.64" y="-602.2" font-family="Times,serif" font-size="14.00">Invoice</text>
<polygon fill="#ffebcd" stroke="none" points="438.39,-571.25 438.39,-596 543.39,-596 543.39,-571.25 438.39,-571.25"/>
<polygon fill="none" stroke="black" points="438.39,-571.25 438.39,-596 543.39,-596 543.39,-571.25 438.39,-571.25"/>
<text xml:space="preserve" text-anchor="start" x="456.02" y="-579.7" font-family="Times,serif" font-size="14.00">InvoiceId 🔑</text>
<polygon fill="none" stroke="black" points="438.39,-548.75 438.39,-571.25 543.39,-571.25 543.39,-548.75 438.39,-548.75"/>
<text xml:space="preserve" text-anchor="start" x="458.64" y="-554.95" font-family="Times,serif" font-size="14.00">CustomerId</text>
<polygon fill="none" stroke="black" points="438.39,-526.25 438.39,-548.75 543.39,-548.75 543.39,-526.25 438.39,-526.25"/>
<text xml:space="preserve" text-anchor="start" x="457.89" y="-532.45" font-family="Times,serif" font-size="14.00">InvoiceDate</text>
<polygon fill="none" stroke="black" points="438.39,-503.75 438.39,-526.25 543.39,-526.25 543.39,-503.75 438.39,-503.75"/>
<text xml:space="preserve" text-anchor="start" x="450.02" y="-509.95" font-family="Times,serif" font-size="14.00">BillingAddress</text>
<polygon fill="none" stroke="black" points="438.39,-481.25 438.39,-503.75 543.39,-503.75 543.39,-481.25 438.39,-481.25"/>
<text xml:space="preserve" text-anchor="start" x="460.52" y="-487.45" font-family="Times,serif" font-size="14.00">BillingCity</text>
<polygon fill="none" stroke="black" points="438.39,-458.75 438.39,-481.25 543.39,-481.25 543.39,-458.75 438.39,-458.75"/>
<text xml:space="preserve" text-anchor="start" x="458.64" y="-464.95" font-family="Times,serif" font-size="14.00">BillingState</text>
<polygon fill="none" stroke="black" points="438.39,-436.25 438.39,-458.75 543.39,-458.75 543.39,-436.25 438.39,-436.25"/>
<text xml:space="preserve" text-anchor="start" x="450.02" y="-442.45" font-family="Times,serif" font-size="14.00">BillingCountry</text>
<polygon fill="none" stroke="black" points="438.39,-413.75 438.39,-436.25 543.39,-436.25 543.39,-413.75 438.39,-413.75"/>
<text xml:space="preserve" text-anchor="start" x="441.39" y="-419.95" font-family="Times,serif" font-size="14.00">BillingPostalCode</text>
<polygon fill="none" stroke="black" points="438.39,-391.25 438.39,-413.75 543.39,-413.75 543.39,-391.25 438.39,-391.25"/>
<text xml:space="preserve" text-anchor="start" x="476.64" y="-397.45" font-family="Times,serif" font-size="14.00">Total</text>
<polygon fill="none" stroke="black" points="437.39,-390.25 437.39,-619.5 544.39,-619.5 544.39,-390.25 437.39,-390.25"/>
</g>
<!-- Invoice&#45;&gt;Customer -->
<g id="edge4" class="edge">
<title>Invoice:CustomerId&#45;&gt;Customer:CustomerId</title>
<path fill="none" stroke="black" d="M544.39,-560C689.82,-560 652.43,-767.25 788.22,-778.18"/>
<polygon fill="black" stroke="black" points="788,-781.67 798.13,-778.57 788.28,-774.68 788,-781.67"/>
</g>
<!-- InvoiceLine -->
<g id="node7" class="node">
<title>InvoiceLine</title>
<polygon fill="lightgray" stroke="none" points="84.64,-460 84.64,-482.5 185.14,-482.5 185.14,-460 84.64,-460"/>
<polygon fill="none" stroke="black" points="84.64,-460 84.64,-482.5 185.14,-482.5 185.14,-460 84.64,-460"/>
<text xml:space="preserve" text-anchor="start" x="102.27" y="-466.2" font-family="Times,serif" font-size="14.00">InvoiceLine</text>
<polygon fill="#ffebcd" stroke="none" points="84.64,-435.25 84.64,-460 185.14,-460 185.14,-435.25 84.64,-435.25"/>
<polygon fill="none" stroke="black" points="84.64,-435.25 84.64,-460 185.14,-460 185.14,-435.25 84.64,-435.25"/>
<text xml:space="preserve" text-anchor="start" x="87.64" y="-443.7" font-family="Times,serif" font-size="14.00">InvoiceLineId 🔑</text>
<polygon fill="none" stroke="black" points="84.64,-412.75 84.64,-435.25 185.14,-435.25 185.14,-412.75 84.64,-412.75"/>
<text xml:space="preserve" text-anchor="start" x="109.02" y="-418.95" font-family="Times,serif" font-size="14.00">InvoiceId</text>
<polygon fill="none" stroke="black" points="84.64,-390.25 84.64,-412.75 185.14,-412.75 185.14,-390.25 84.64,-390.25"/>
<text xml:space="preserve" text-anchor="start" x="113.52" y="-396.45" font-family="Times,serif" font-size="14.00">TrackId</text>
<polygon fill="none" stroke="black" points="84.64,-367.75 84.64,-390.25 185.14,-390.25 185.14,-367.75 84.64,-367.75"/>
<text xml:space="preserve" text-anchor="start" x="109.02" y="-373.95" font-family="Times,serif" font-size="14.00">UnitPrice</text>
<polygon fill="none" stroke="black" points="84.64,-345.25 84.64,-367.75 185.14,-367.75 185.14,-345.25 84.64,-345.25"/>
<text xml:space="preserve" text-anchor="start" x="111.27" y="-351.45" font-family="Times,serif" font-size="14.00">Quantity</text>
<polygon fill="none" stroke="black" points="83.64,-344.25 83.64,-483.5 186.14,-483.5 186.14,-344.25 83.64,-344.25"/>
</g>
<!-- InvoiceLine&#45;&gt;Invoice -->
<g id="edge6" class="edge">
<title>InvoiceLine:InvoiceId&#45;&gt;Invoice:InvoiceId</title>
<path fill="none" stroke="black" d="M186.14,-424C314.56,-424 305.75,-574.41 426.13,-583.22"/>
<polygon fill="black" stroke="black" points="425.76,-586.71 435.88,-583.57 426.01,-579.72 425.76,-586.71"/>
</g>
<!-- Track -->
<g id="node11" class="node">
<title>Track</title>
<polygon fill="lightgray" stroke="none" points="450.77,-308 450.77,-330.5 531.02,-330.5 531.02,-308 450.77,-308"/>
<polygon fill="none" stroke="black" points="450.77,-308 450.77,-330.5 531.02,-330.5 531.02,-308 450.77,-308"/>
<text xml:space="preserve" text-anchor="start" x="475.14" y="-314.2" font-family="Times,serif" font-size="14.00">Track</text>
<polygon fill="#ffebcd" stroke="none" points="450.77,-283.25 450.77,-308 531.02,-308 531.02,-283.25 450.77,-283.25"/>
<polygon fill="none" stroke="black" points="450.77,-283.25 450.77,-308 531.02,-308 531.02,-283.25 450.77,-283.25"/>
<text xml:space="preserve" text-anchor="start" x="460.52" y="-291.7" font-family="Times,serif" font-size="14.00">TrackId 🔑</text>
<polygon fill="none" stroke="black" points="450.77,-260.75 450.77,-283.25 531.02,-283.25 531.02,-260.75 450.77,-260.75"/>
<text xml:space="preserve" text-anchor="start" x="474.39" y="-266.95" font-family="Times,serif" font-size="14.00">Name</text>
<polygon fill="none" stroke="black" points="450.77,-238.25 450.77,-260.75 531.02,-260.75 531.02,-238.25 450.77,-238.25"/>
<text xml:space="preserve" text-anchor="start" x="466.14" y="-244.45" font-family="Times,serif" font-size="14.00">AlbumId</text>
<polygon fill="none" stroke="black" points="450.77,-215.75 450.77,-238.25 531.02,-238.25 531.02,-215.75 450.77,-215.75"/>
<text xml:space="preserve" text-anchor="start" x="453.77" y="-221.95" font-family="Times,serif" font-size="14.00">MediaTypeId</text>
<polygon fill="none" stroke="black" points="450.77,-193.25 450.77,-215.75 531.02,-215.75 531.02,-193.25 450.77,-193.25"/>
<text xml:space="preserve" text-anchor="start" x="468.77" y="-199.45" font-family="Times,serif" font-size="14.00">GenreId</text>
<polygon fill="none" stroke="black" points="450.77,-170.75 450.77,-193.25 531.02,-193.25 531.02,-170.75 450.77,-170.75"/>
<text xml:space="preserve" text-anchor="start" x="462.77" y="-176.95" font-family="Times,serif" font-size="14.00">Composer</text>
<polygon fill="none" stroke="black" points="450.77,-148.25 450.77,-170.75 531.02,-170.75 531.02,-148.25 450.77,-148.25"/>
<text xml:space="preserve" text-anchor="start" x="455.64" y="-154.45" font-family="Times,serif" font-size="14.00">Milliseconds</text>
<polygon fill="none" stroke="black" points="450.77,-125.75 450.77,-148.25 531.02,-148.25 531.02,-125.75 450.77,-125.75"/>
<text xml:space="preserve" text-anchor="start" x="475.52" y="-131.95" font-family="Times,serif" font-size="14.00">Bytes</text>
<polygon fill="none" stroke="black" points="450.77,-103.25 450.77,-125.75 531.02,-125.75 531.02,-103.25 450.77,-103.25"/>
<text xml:space="preserve" text-anchor="start" x="465.02" y="-109.45" font-family="Times,serif" font-size="14.00">UnitPrice</text>
<polygon fill="none" stroke="black" points="449.77,-102.25 449.77,-331.5 532.02,-331.5 532.02,-102.25 449.77,-102.25"/>
</g>
<!-- InvoiceLine&#45;&gt;Track -->
<g id="edge5" class="edge">
<title>InvoiceLine:TrackId&#45;&gt;Track:TrackId</title>
<path fill="none" stroke="black" d="M186.14,-401.5C308.46,-401.5 322.7,-302.14 438.26,-295.93"/>
<polygon fill="black" stroke="black" points="438.35,-299.43 448.25,-295.66 438.17,-292.43 438.35,-299.43"/>
</g>
<!-- MediaType -->
<g id="node8" class="node">
<title>MediaType</title>
<polygon fill="lightgray" stroke="none" points="795.77,-190.25 795.77,-212.75 894.02,-212.75 894.02,-190.25 795.77,-190.25"/>
<polygon fill="none" stroke="black" points="795.77,-190.25 795.77,-212.75 894.02,-212.75 894.02,-190.25 795.77,-190.25"/>
<text xml:space="preserve" text-anchor="start" x="813.39" y="-196.45" font-family="Times,serif" font-size="14.00">MediaType</text>
<polygon fill="#ffebcd" stroke="none" points="795.77,-165.5 795.77,-190.25 894.02,-190.25 894.02,-165.5 795.77,-165.5"/>
<polygon fill="none" stroke="black" points="795.77,-165.5 795.77,-190.25 894.02,-190.25 894.02,-165.5 795.77,-165.5"/>
<text xml:space="preserve" text-anchor="start" x="798.77" y="-173.95" font-family="Times,serif" font-size="14.00">MediaTypeId 🔑</text>
<polygon fill="none" stroke="black" points="795.77,-143 795.77,-165.5 894.02,-165.5 894.02,-143 795.77,-143"/>
<text xml:space="preserve" text-anchor="start" x="828.39" y="-149.2" font-family="Times,serif" font-size="14.00">Name</text>
<polygon fill="none" stroke="black" points="794.77,-142 794.77,-213.75 895.02,-213.75 895.02,-142 794.77,-142"/>
</g>
<!-- Playlist -->
<g id="node9" class="node">
<title>Playlist</title>
<polygon fill="lightgray" stroke="none" points="453.02,-52.25 453.02,-74.75 528.77,-74.75 528.77,-52.25 453.02,-52.25"/>
<polygon fill="none" stroke="black" points="453.02,-52.25 453.02,-74.75 528.77,-74.75 528.77,-52.25 453.02,-52.25"/>
<text xml:space="preserve" text-anchor="start" x="470.64" y="-58.45" font-family="Times,serif" font-size="14.00">Playlist</text>
<polygon fill="#ffebcd" stroke="none" points="453.02,-27.5 453.02,-52.25 528.77,-52.25 528.77,-27.5 453.02,-27.5"/>
<polygon fill="none" stroke="black" points="453.02,-27.5 453.02,-52.25 528.77,-52.25 528.77,-27.5 453.02,-27.5"/>
<text xml:space="preserve" text-anchor="start" x="456.02" y="-35.95" font-family="Times,serif" font-size="14.00">PlaylistId 🔑</text>
<polygon fill="none" stroke="black" points="453.02,-5 453.02,-27.5 528.77,-27.5 528.77,-5 453.02,-5"/>
<text xml:space="preserve" text-anchor="start" x="474.39" y="-11.2" font-family="Times,serif" font-size="14.00">Name</text>
<polygon fill="none" stroke="black" points="452.02,-4 452.02,-75.75 529.77,-75.75 529.77,-4 452.02,-4"/>
</g>
<!-- PlaylistTrack -->
<g id="node10" class="node">
<title>PlaylistTrack</title>
<polygon fill="lightgray" stroke="none" points="95.89,-226.38 95.89,-248.88 173.89,-248.88 173.89,-226.38 95.89,-226.38"/>
<polygon fill="none" stroke="black" points="95.89,-226.38 95.89,-248.88 173.89,-248.88 173.89,-226.38 95.89,-226.38"/>
<text xml:space="preserve" text-anchor="start" x="98.89" y="-232.57" font-family="Times,serif" font-size="14.00">PlaylistTrack</text>
<polygon fill="#ffebcd" stroke="none" points="95.89,-201.62 95.89,-226.38 173.89,-226.38 173.89,-201.62 95.89,-201.62"/>
<polygon fill="none" stroke="black" points="95.89,-201.62 95.89,-226.38 173.89,-226.38 173.89,-201.62 95.89,-201.62"/>
<text xml:space="preserve" text-anchor="start" x="100.02" y="-210.07" font-family="Times,serif" font-size="14.00">PlaylistId 🔑</text>
<polygon fill="#ffebcd" stroke="none" points="95.89,-176.88 95.89,-201.62 173.89,-201.62 173.89,-176.88 95.89,-176.88"/>
<polygon fill="none" stroke="black" points="95.89,-176.88 95.89,-201.62 173.89,-201.62 173.89,-176.88 95.89,-176.88"/>
<text xml:space="preserve" text-anchor="start" x="104.52" y="-185.32" font-family="Times,serif" font-size="14.00">TrackId 🔑</text>
<polygon fill="none" stroke="black" points="94.89,-175.88 94.89,-249.88 174.89,-249.88 174.89,-175.88 94.89,-175.88"/>
</g>
<!-- PlaylistTrack&#45;&gt;Playlist -->
<g id="edge8" class="edge">
<title>PlaylistTrack:PlaylistId&#45;&gt;Playlist:PlaylistId</title>
<path fill="none" stroke="black" d="M174.89,-214C316.52,-214 307.17,-48.94 440.84,-40.23"/>
<polygon fill="black" stroke="black" points="440.62,-43.74 450.51,-39.92 440.4,-36.74 440.62,-43.74"/>
</g>
<!-- PlaylistTrack&#45;&gt;Track -->
<g id="edge7" class="edge">
<title>PlaylistTrack:TrackId&#45;&gt;Track:TrackId</title>
<path fill="none" stroke="black" d="M174.89,-189.25C302.05,-189.25 317.92,-289.48 438.55,-295.36"/>
<polygon fill="black" stroke="black" points="438.17,-298.85 448.25,-295.59 438.34,-291.85 438.17,-298.85"/>
</g>
<!-- Track&#45;&gt;Album -->
<g id="edge11" class="edge">
<title>Track:AlbumId&#45;&gt;Album:AlbumId</title>
<path fill="none" stroke="black" d="M532.02,-249.5C652.31,-249.5 681.2,-295.13 795.78,-297.99"/>
<polygon fill="black" stroke="black" points="795.59,-301.48 805.63,-298.11 795.67,-294.48 795.59,-301.48"/>
</g>
<!-- Track&#45;&gt;Genre -->
<g id="edge10" class="edge">
<title>Track:GenreId&#45;&gt;Genre:GenreId</title>
<path fill="none" stroke="black" d="M532.02,-204.5C663.49,-204.5 673.96,-86.83 798.58,-80.17"/>
<polygon fill="black" stroke="black" points="798.35,-83.68 808.25,-79.91 798.17,-76.68 798.35,-83.68"/>
</g>
<!-- Track&#45;&gt;MediaType -->
<g id="edge9" class="edge">
<title>Track:MediaTypeId&#45;&gt;MediaType:MediaTypeId</title>
<path fill="none" stroke="black" d="M532.02,-227C646.99,-227 674.25,-180.99 783.57,-178.02"/>
<polygon fill="black" stroke="black" points="783.3,-181.53 793.25,-177.9 783.21,-174.53 783.3,-181.53"/>
</g>
<!-- sqlite_stat1 -->
<g id="node12" class="node">
<title>sqlite_stat1</title>
<polygon fill="lightgray" stroke="none" points="101.14,-578.38 101.14,-600.88 168.64,-600.88 168.64,-578.38 101.14,-578.38"/>
<polygon fill="none" stroke="black" points="101.14,-578.38 101.14,-600.88 168.64,-600.88 168.64,-578.38 101.14,-578.38"/>
<text xml:space="preserve" text-anchor="start" x="104.14" y="-584.58" font-family="Times,serif" font-size="14.00">sqlite_stat1</text>
<polygon fill="none" stroke="black" points="101.14,-555.88 101.14,-578.38 168.64,-578.38 168.64,-555.88 101.14,-555.88"/>
<text xml:space="preserve" text-anchor="start" x="127.77" y="-562.08" font-family="Times,serif" font-size="14.00">tbl</text>
<polygon fill="none" stroke="black" points="101.14,-533.38 101.14,-555.88 168.64,-555.88 168.64,-533.38 101.14,-533.38"/>
<text xml:space="preserve" text-anchor="start" x="126.27" y="-539.58" font-family="Times,serif" font-size="14.00">idx</text>
<polygon fill="none" stroke="black" points="101.14,-510.88 101.14,-533.38 168.64,-533.38 168.64,-510.88 101.14,-510.88"/>
<text xml:space="preserve" text-anchor="start" x="125.52" y="-517.08" font-family="Times,serif" font-size="14.00">stat</text>
<polygon fill="none" stroke="black" points="100.14,-509.88 100.14,-601.88 169.64,-601.88 169.64,-509.88 100.14,-509.88"/>
</g>
<!-- sqlite_stat4 -->
<g id="node13" class="node">
<title>sqlite_stat4</title>
<polygon fill="lightgray" stroke="none" points="101.14,-764.12 101.14,-786.62 168.64,-786.62 168.64,-764.12 101.14,-764.12"/>
<polygon fill="none" stroke="black" points="101.14,-764.12 101.14,-786.62 168.64,-786.62 168.64,-764.12 101.14,-764.12"/>
<text xml:space="preserve" text-anchor="start" x="104.14" y="-770.33" font-family="Times,serif" font-size="14.00">sqlite_stat4</text>
<polygon fill="none" stroke="black" points="101.14,-741.62 101.14,-764.12 168.64,-764.12 168.64,-741.62 101.14,-741.62"/>
<text xml:space="preserve" text-anchor="start" x="127.77" y="-747.83" font-family="Times,serif" font-size="14.00">tbl</text>
<polygon fill="none" stroke="black" points="101.14,-719.12 101.14,-741.62 168.64,-741.62 168.64,-719.12 101.14,-719.12"/>
<text xml:space="preserve" text-anchor="start" x="126.27" y="-725.33" font-family="Times,serif" font-size="14.00">idx</text>
<polygon fill="none" stroke="black" points="101.14,-696.62 101.14,-719.12 168.64,-719.12 168.64,-696.62 101.14,-696.62"/>
<text xml:space="preserve" text-anchor="start" x="125.14" y="-702.83" font-family="Times,serif" font-size="14.00">neq</text>
<polygon fill="none" stroke="black" points="101.14,-674.12 101.14,-696.62 168.64,-696.62 168.64,-674.12 101.14,-674.12"/>
<text xml:space="preserve" text-anchor="start" x="127.77" y="-680.33" font-family="Times,serif" font-size="14.00">nlt</text>
<polygon fill="none" stroke="black" points="101.14,-651.62 101.14,-674.12 168.64,-674.12 168.64,-651.62 101.14,-651.62"/>
<text xml:space="preserve" text-anchor="start" x="124.39" y="-657.83" font-family="Times,serif" font-size="14.00">ndlt</text>
<polygon fill="none" stroke="black" points="101.14,-629.12 101.14,-651.62 168.64,-651.62 168.64,-629.12 101.14,-629.12"/>
<text xml:space="preserve" text-anchor="start" x="115.39" y="-635.33" font-family="Times,serif" font-size="14.00">sample</text>
<polygon fill="none" stroke="black" points="100.14,-628.12 100.14,-787.62 169.64,-787.62 169.64,-628.12 100.14,-628.12"/>
</g>
<!-- pet_food -->
<g id="node14" class="node">
<title>pet_food</title>
<polygon fill="lightgray" stroke="none" points="107.89,-886.62 107.89,-909.12 161.89,-909.12 161.89,-886.62 107.89,-886.62"/>
<polygon fill="none" stroke="black" points="107.89,-886.62 107.89,-909.12 161.89,-909.12 161.89,-886.62 107.89,-886.62"/>
<text xml:space="preserve" text-anchor="start" x="110.89" y="-892.83" font-family="Times,serif" font-size="14.00">pet_food</text>
<polygon fill="#ffebcd" stroke="none" points="107.89,-861.88 107.89,-886.62 161.89,-886.62 161.89,-861.88 107.89,-861.88"/>
<polygon fill="none" stroke="black" points="107.89,-861.88 107.89,-886.62 161.89,-886.62 161.89,-861.88 107.89,-861.88"/>
<text xml:space="preserve" text-anchor="start" x="112.77" y="-870.33" font-family="Times,serif" font-size="14.00">catid 🔑</text>
<polygon fill="#ffebcd" stroke="none" points="107.89,-837.12 107.89,-861.88 161.89,-861.88 161.89,-837.12 107.89,-837.12"/>
<polygon fill="none" stroke="black" points="107.89,-837.12 107.89,-861.88 161.89,-861.88 161.89,-837.12 107.89,-837.12"/>
<text xml:space="preserve" text-anchor="start" x="113.52" y="-845.58" font-family="Times,serif" font-size="14.00">food 🔑</text>
<polygon fill="none" stroke="black" points="107.89,-814.62 107.89,-837.12 161.89,-837.12 161.89,-814.62 107.89,-814.62"/>
<text xml:space="preserve" text-anchor="start" x="126.27" y="-820.83" font-family="Times,serif" font-size="14.00">qty</text>
<polygon fill="none" stroke="black" points="106.89,-813.62 106.89,-910.12 162.89,-910.12 162.89,-813.62 106.89,-813.62"/>
</g>
</g>
</svg>
